<svg width="15" height="15" viewBox="0 0 15 15" fill="none" xmlns="http://www.w3.org/2000/svg">
<path d="M7.5 0C3.36568 0 0 3.36079 0 7.5C0 11.6343 3.36568 15 7.5 15C11.6343 15 15 11.6343 15 7.5C15 3.36079 11.6343 0 7.5 0ZM10.3124 8.19821H7.5C7.11082 8.19821 6.79688 7.88427 6.79688 7.49509V3.28119C6.79688 2.89202 7.11082 2.57807 7.5 2.57807C7.88918 2.57807 8.20312 2.89202 8.20312 3.28119V6.79183H10.3124C10.7016 6.79183 11.0156 7.11069 11.0156 7.49495C11.0156 7.88413 10.7016 8.19821 10.3124 8.19821Z" fill="#00B152"/>
</svg>
