<svg width="12" height="12" viewBox="0 0 12 12" fill="none" xmlns="http://www.w3.org/2000/svg">
<path fill-rule="evenodd" clip-rule="evenodd" d="M11.1818 0.776371L11.2077 0.801759C11.2826 0.875127 11.3381 0.929447 11.3847 0.980805C12.2051 1.8828 12.2051 3.24412 11.3847 4.14612C11.3381 4.19747 11.2826 4.25179 11.2077 4.32516L5.08271 10.3269C4.7764 10.6274 4.54425 10.8551 4.25653 11.015C3.96881 11.1749 3.65019 11.2532 3.22985 11.3566L2.39831 11.5615C2.00073 11.6595 1.63834 11.7489 1.34576 11.7773C1.03488 11.8075 0.63606 11.7875 0.321381 11.4831C0.00670813 11.1787 -0.0188369 10.7882 0.0080373 10.4832C0.0333214 10.1961 0.119861 9.83992 0.214801 9.44915L0.414591 8.6262C0.517123 8.20289 0.594851 7.88199 0.760059 7.5922C0.925261 7.30246 1.1634 7.06939 1.47753 6.76187L7.58605 0.776365C7.66088 0.703009 7.71635 0.648635 7.76873 0.602879C8.6893 -0.20096 10.0785 -0.20096 10.9991 0.602879C11.0515 0.648647 11.1069 0.702979 11.1818 0.776371ZM10.3365 1.6301C10.243 1.53852 10.2142 1.51072 10.1915 1.49084C9.73125 1.08892 9.03657 1.08892 8.57635 1.49084C8.55359 1.51072 8.52482 1.53851 8.43136 1.6301L8.13597 1.91953L10.0411 3.78626L10.3365 3.49682C10.4299 3.40524 10.4583 3.3771 10.4785 3.35479C10.8888 2.90379 10.8888 2.22313 10.4785 1.77213C10.4583 1.74982 10.4299 1.72168 10.3365 1.6301ZM2.38561 7.55419L7.27768 2.76056L9.18278 4.62729L4.27289 9.43832C3.89671 9.80692 3.78447 9.90998 3.65774 9.98039C3.53101 10.0508 3.38317 10.0923 2.86724 10.2195L2.14413 10.3976C1.69062 10.5094 1.41759 10.5751 1.22588 10.5937L1.2166 10.5946L1.21736 10.5855C1.23394 10.3974 1.29743 10.1291 1.40566 9.68328L1.5792 8.96857C1.70539 8.44886 1.74696 8.29995 1.81973 8.17233C1.89248 8.0447 2.00011 7.93195 2.38561 7.55419ZM6.99419 10.2649C6.65899 10.2649 6.38727 10.5311 6.38727 10.8596C6.38727 11.188 6.65899 11.4543 6.99419 11.4543H11.2426C11.5778 11.4543 11.8495 11.188 11.8495 10.8596C11.8495 10.5311 11.5778 10.2649 11.2426 10.2649H6.99419Z" fill="#00B152"/>
</svg>
