<svg xmlns="http://www.w3.org/2000/svg" width="20" height="20" viewBox="0 0 20 20" fill="none">
<path d="M1.02388 14.4309L4.38721 11.859C4.1949 11.2749 4.09091 10.65 4.09091 10C4.09091 9.35001 4.1949 8.72513 4.38721 8.14102L1.02388 5.56906C0.367906 6.90272 0 8.40631 0 10C0 11.5937 0.367906 13.0973 1.02388 14.4309Z" fill="#FBBC05"/>
<path d="M4.38677 8.14102C5.16276 5.78407 7.37681 4.09091 9.99956 4.09091C11.4086 4.09091 12.6814 4.59091 13.6814 5.40909L16.5905 2.5C14.8177 0.954545 12.545 0 9.99956 0C6.04779 0 2.65001 2.2621 1.02344 5.56906L4.38677 8.14102Z" fill="#EA4335"/>
<path d="M9.99993 20C6.04707 20 2.6485 17.7367 1.02246 14.4282L4.38442 11.8507C5.15795 14.212 7.37411 15.9091 9.99993 15.9091C11.2848 15.9091 12.4233 15.6065 13.3249 15.0375L16.5179 17.5095C14.77 19.1347 12.439 20 9.99993 20Z" fill="#34A853"/>
<path d="M10 8.18182H19.3182C19.4545 8.77273 19.5455 9.40909 19.5455 10C19.5455 13.2593 18.3531 15.8032 16.5179 17.5095L13.325 15.0375C14.369 14.3786 15.0953 13.3626 15.3636 12.0455H10V8.18182Z" fill="#4285F4"/>
</svg>