<svg xmlns="http://www.w3.org/2000/svg" width="21" height="20" viewBox="0 0 21 20" fill="none">
<path d="M0.5 1.43268C0.5 0.641645 1.15752 0 1.96864 0H18.9053C19.7164 0 20.3739 0.641645 20.3739 1.43268V18.5673C20.3739 19.3586 19.7164 20 18.9053 20H1.96864C1.15752 20 0.5 19.3586 0.5 18.5673V1.43268Z" fill="#006699"/>
<path fill-rule="evenodd" clip-rule="evenodd" d="M6.52395 16.7421V7.71095H3.52217V16.7421H6.52395ZM5.02305 6.4779C6.06983 6.4779 6.72136 5.78441 6.72136 4.91775C6.70185 4.03158 6.06983 3.35733 5.04291 3.35733C4.01609 3.35733 3.34473 4.03158 3.34473 4.91775C3.34473 5.78441 3.99612 6.4779 5.00348 6.4779H5.02305Z" fill="white"/>
<path fill-rule="evenodd" clip-rule="evenodd" d="M8.18555 16.7421H11.1873V11.6987C11.1873 11.4288 11.2068 11.1591 11.2861 10.9662C11.5031 10.4269 11.997 9.86838 12.8262 9.86838C13.9124 9.86838 14.3469 10.6966 14.3469 11.9106V16.7421H17.3484V11.5638C17.3484 8.7898 15.8675 7.49903 13.8926 7.49903C12.2732 7.49903 11.5623 8.40417 11.1673 9.02069H11.1874V7.71095H8.18563C8.22502 8.55837 8.18555 16.7421 8.18555 16.7421Z" fill="white"/>
</svg>