<svg width="17" height="23" viewBox="0 0 17 23" fill="none" xmlns="http://www.w3.org/2000/svg">
<path id="Vector" fill-rule="evenodd" clip-rule="evenodd" d="M11.5168 8.0105V5.70293C11.5168 3.96042 10.1493 2.53438 8.47819 2.53438C6.80707 2.53438 5.43959 3.96034 5.43959 5.70293V8.0105H3.00915V5.70293C3.00915 2.56594 5.46986 0 8.47819 0C11.4865 0 13.9472 2.56594 13.9472 5.70293V8.0105H11.5168ZM16.9565 11.1838V20.9101C16.9565 21.9998 16.1016 22.8913 15.0566 22.8913H1.89993C0.854927 22.8913 0 21.9998 0 20.9101V11.1838C0 10.0942 0.854903 9.20266 1.89993 9.20266H15.0566C16.1016 9.20266 16.9565 10.0941 16.9565 11.1838ZM10.0765 14.5268C10.0765 13.6068 9.36159 12.8612 8.47923 12.8612C7.5969 12.8612 6.88193 13.6067 6.88193 14.5268C6.88193 15.0929 7.1524 15.5929 7.56661 15.8936V18.2821C7.56661 18.8057 7.97704 19.2337 8.47921 19.2337C8.98137 19.2337 9.3918 18.8057 9.3918 18.2821V15.8936C9.80601 15.5929 10.0765 15.0929 10.0765 14.5268Z" fill="white"/>
</svg>
