<svg width="22" height="22" viewBox="0 0 22 22" fill="none" xmlns="http://www.w3.org/2000/svg">
<path fill-rule="evenodd" clip-rule="evenodd" d="M11.0004 7.34126C8.9795 7.34126 7.34126 8.9795 7.34126 11.0004C7.34126 13.0212 8.9795 14.6594 11.0004 14.6594C13.0212 14.6594 14.6594 13.0212 14.6594 11.0004C14.6594 8.9795 13.0212 7.34126 11.0004 7.34126ZM6.38672 11.0004C6.38672 8.45231 8.45231 6.38672 11.0004 6.38672C13.5484 6.38672 15.614 8.45231 15.614 11.0004C15.614 13.5484 13.5484 15.614 11.0004 15.614C8.45231 15.614 6.38672 13.5484 6.38672 11.0004Z" fill="#E1E1E1"/>
<path fill-rule="evenodd" clip-rule="evenodd" d="M11 4C11.3515 4 11.6364 4.28491 11.6364 4.63636V4.68727C11.6364 5.03873 11.3515 5.32364 11 5.32364C10.6485 5.32364 10.3636 5.03873 10.3636 4.68727V4.63636C10.3636 4.28491 10.6485 4 11 4ZM6.00639 6.00639C6.2549 5.75787 6.65783 5.75787 6.90634 6.00639L6.98907 6.08911C7.23758 6.33763 7.23758 6.74055 6.98907 6.98907C6.74055 7.23758 6.33763 7.23758 6.08911 6.98907L6.00639 6.90634C5.75787 6.65783 5.75787 6.2549 6.00639 6.00639ZM15.9936 6.00639C16.2421 6.2549 16.2421 6.65782 15.9936 6.90634L15.9109 6.98907C15.6624 7.23758 15.2594 7.23758 15.0109 6.98907C14.7624 6.74055 14.7624 6.33763 15.0109 6.08911L15.0937 6.00639C15.3422 5.75787 15.7451 5.75787 15.9936 6.00639ZM4 11C4 10.6485 4.28491 10.3636 4.63636 10.3636H4.68727C5.03873 10.3636 5.32364 10.6485 5.32364 11C5.32364 11.3515 5.03873 11.6364 4.68727 11.6364H4.63636C4.28491 11.6364 4 11.3515 4 11ZM16.6764 11C16.6764 10.6485 16.9613 10.3636 17.3127 10.3636H17.3636C17.7151 10.3636 18 10.6485 18 11C18 11.3515 17.7151 11.6364 17.3636 11.6364H17.3127C16.9613 11.6364 16.6764 11.3515 16.6764 11ZM6.98907 15.0109C7.23758 15.2594 7.23758 15.6624 6.98907 15.9109L6.90634 15.9936C6.65782 16.2421 6.2549 16.2421 6.00639 15.9936C5.75787 15.7451 5.75787 15.3422 6.00639 15.0937L6.08911 15.0109C6.33763 14.7624 6.74055 14.7624 6.98907 15.0109ZM15.0109 15.0109C15.2594 14.7624 15.6624 14.7624 15.9109 15.0109L15.9936 15.0937C16.2421 15.3422 16.2421 15.7451 15.9936 15.9936C15.7451 16.2421 15.3422 16.2421 15.0937 15.9936L15.0109 15.9109C14.7624 15.6624 14.7624 15.2594 15.0109 15.0109ZM11 16.6764C11.3515 16.6764 11.6364 16.9613 11.6364 17.3127V17.3636C11.6364 17.7151 11.3515 18 11 18C10.6485 18 10.3636 17.7151 10.3636 17.3636V17.3127C10.3636 16.9613 10.6485 16.6764 11 16.6764Z" fill="#E1E1E1"/>
</svg>
