<svg xmlns="http://www.w3.org/2000/svg" width="23" height="22" viewBox="0 0 23 22" fill="none">
<path d="M14.0937 8.71103C14.0781 8.57329 14.041 8.44035 13.9823 8.31577C13.9751 8.29541 13.9667 8.27505 13.9547 8.25708C13.8889 8.12294 13.8026 8.00077 13.6972 7.89537C12.7283 6.92641 11.4144 6.38267 10.0442 6.38267C8.67407 6.38267 7.36018 6.92641 6.39125 7.89537L1.51886 12.7678C0.213364 14.0721 -0.295674 15.9752 0.182213 17.7573C0.658904 19.5407 2.05185 20.9335 3.8352 21.4115C5.61739 21.8882 7.52069 21.3791 8.82594 20.0736L11.6957 17.2063V17.2075C10.6776 17.0315 9.70984 16.6386 8.85948 16.0541L6.83295 18.0807C5.90232 18.967 4.44113 18.967 3.51172 18.0807C2.59906 17.162 2.59906 15.6793 3.51172 14.7607L8.38166 9.89072H8.38046C8.59964 9.67154 8.86074 9.49908 9.14699 9.38168C9.29551 9.32539 9.44882 9.28467 9.60452 9.25951C10.3675 9.1122 11.1544 9.35294 11.7041 9.90389C11.9688 10.1686 12.3269 10.3171 12.7006 10.3171C13.0755 10.3171 13.4336 10.1686 13.6971 9.90389C13.8815 9.71945 14.0109 9.48589 14.0684 9.23198V9.21402C14.0983 9.07508 14.1067 8.93136 14.0935 8.79003C14.0959 8.76368 14.0961 8.73737 14.0937 8.71103Z" fill="#00A150"/>
<path d="M21.4886 1.5139C20.5208 0.544944 19.2057 0 17.8356 0C16.4654 0 15.1515 0.544944 14.1826 1.5139L11.3093 4.38481C12.3261 4.56087 13.2939 4.95373 14.1454 5.537L16.1756 3.50689C17.105 2.62059 18.5674 2.62059 19.4956 3.50689C20.4106 4.42553 20.4106 5.91067 19.4956 6.82812L18.6009 7.7264L14.6149 11.7124C13.6855 12.5987 12.2243 12.5987 11.2937 11.7124C10.7379 11.1997 9.87558 11.2165 9.3414 11.7519C8.80603 12.2873 8.78806 13.1484 9.30068 13.7054C10.2696 14.6755 11.5835 15.2205 12.9549 15.2205C14.3251 15.2205 15.639 14.6755 16.6079 13.7054L20.5939 9.71939L21.4862 8.8235C22.4551 7.85577 23.0001 6.54187 23.0001 5.17051C23.0001 3.80032 22.4551 2.48645 21.4862 1.51752L21.4886 1.5139Z" fill="#00A150"/>
</svg>