<svg width="206" height="106" viewBox="0 0 206 106" fill="none" xmlns="http://www.w3.org/2000/svg">
<path d="M4.9377 0.607045C2.98217 1.41797 1.41797 2.98217 0.607044 4.9377L1.06891 5.12922C0.702487 6.01284 0.5 6.98214 0.5 8V11.75H0V19.25H0.5V26.75H0V34.25H0.5V41.75H0V49.25H0.5V56.75H0V64.25H0.5V71.75H0V79.25H0.5V86.75H0V94.25H0.5V98C0.5 99.0179 0.702487 99.9872 1.06891 100.871L0.607043 101.062C1.41796 103.018 2.98217 104.582 4.93769 105.393L5.12922 104.931C6.01283 105.298 6.98214 105.5 8 105.5H11.9583V106H19.875V105.5H27.7917V106H35.7083V105.5H43.625V106H51.5417V105.5H59.4583V106H67.375V105.5H75.2917V106H83.2083V105.5H91.125V106H99.0417V105.5H106.958V106H114.875V105.5H122.792V106H130.708V105.5H138.625V106H146.542V105.5H154.458V106H162.375V105.5H170.292V106H178.208V105.5H186.125V106H194.042V105.5H198C199.018 105.5 199.987 105.298 200.871 104.931L201.062 105.393C203.018 104.582 204.582 103.018 205.393 101.062L204.931 100.871C205.298 99.9872 205.5 99.0179 205.5 98V94.25H206V86.75H205.5V79.25H206V71.75H205.5V64.25H206V56.75H205.5V49.25H206V41.75H205.5V34.25H206V26.75H205.5V19.25H206V11.75H205.5V8C205.5 6.98214 205.298 6.01284 204.931 5.12922L205.393 4.9377C204.582 2.98217 203.018 1.41797 201.062 0.607045L200.871 1.06891C199.987 0.702487 199.018 0.5 198 0.5H194.042V0H186.125V0.5H178.208V0H170.292V0.5H162.375V0H154.458V0.5H146.542V0H138.625V0.5H130.708V0H122.792V0.5H114.875V0H106.958V0.5H99.0417V0H91.125V0.5H83.2084V0H75.2917V0.5H67.375V0H59.4584V0.5H51.5417V0H43.625V0.5H35.7083V0H27.7917V0.5H19.875V0H11.9583V0.5H8C6.98214 0.5 6.01284 0.702487 5.12922 1.06891L4.9377 0.607045Z" fill="#29BD6E" fill-opacity="0.16" stroke="#00A150" stroke-dasharray="8 8"/>
</svg>
