<svg xmlns="http://www.w3.org/2000/svg" width="32" height="32" viewBox="0 0 32 32" fill="none">
<rect width="32" height="32" rx="16" fill="#F2F2F2"/>
<path d="M14.1859 11.1957C14.0568 11.0692 13.8924 11.0002 13.6986 11.0002C13.3112 11.0002 13 11.2992 13 11.6787C13 11.8684 13.0822 12.0409 13.2172 12.1731L17.3268 16.1059L13.2172 20.0273C13.0822 20.1595 13 20.3377 13 20.5217C13 20.9012 13.3112 21.2002 13.6986 21.2002C13.8924 21.2002 14.0568 21.1312 14.1859 21.0047L18.7534 16.6349C18.9178 16.4854 18.9941 16.3014 19 16.1002C19 15.899 18.9178 15.7265 18.7534 15.5712L14.1859 11.1957Z" fill="#1F1F1F"/>
</svg>