<svg xmlns="http://www.w3.org/2000/svg" width="32" height="32" viewBox="0 0 32 32" fill="none">
<rect width="32" height="32" rx="16" fill="#F2F2F2"/>
<path d="M17.8141 21.0045C17.9432 21.131 18.1076 21.2 18.3014 21.2C18.6888 21.2 19 20.901 19 20.5215C19 20.3318 18.9178 20.1593 18.7828 20.0271L14.6732 16.0943L18.7828 12.1729C18.9178 12.0407 19 11.8625 19 11.6785C19 11.299 18.6888 11 18.3014 11C18.1076 11 17.9432 11.069 17.8141 11.1955L13.2466 15.5653C13.0822 15.7148 13.0059 15.8988 13 16.1C13 16.3012 13.0822 16.4737 13.2466 16.629L17.8141 21.0045Z" fill="#1F1F1F"/>
</svg>