<svg width="51" height="38" viewBox="0 0 51 38" fill="none" xmlns="http://www.w3.org/2000/svg">
<path d="M19 36H13.9C10.7439 36 7.71711 34.7462 5.48543 32.5145C3.25375 30.2829 2 27.2561 2 24.1C2 20.9439 3.25375 17.9171 5.48543 15.6854C7.71711 13.4537 10.7439 12.2 13.9 12.2C14.8956 12.1996 15.8876 12.3209 16.8537 12.5612" stroke="white" stroke-width="2.58693" stroke-linecap="round" stroke-linejoin="round"/>
<path d="M15.6006 19C15.6006 16.3063 16.2407 13.6512 17.4681 11.2534C18.6956 8.85567 20.4753 6.78391 22.6605 5.20888C24.8457 3.63386 27.374 2.60066 30.0368 2.19443C32.6997 1.7882 35.421 2.02057 37.9765 2.87239C40.5319 3.7242 42.8484 5.17108 44.7349 7.09379C46.6215 9.0165 48.0241 11.36 48.8273 13.9312C49.6305 16.5023 49.8112 19.2275 49.3545 21.8822C48.8978 24.5369 47.8168 27.0451 46.2006 29.2" stroke="white" stroke-width="2.58693" stroke-linecap="round" stroke-linejoin="round"/>
<path d="M23.6968 26.2038L30.9005 19L38.1043 26.2038" stroke="white" stroke-width="2.58693" stroke-linecap="round" stroke-linejoin="round"/>
<path d="M30.9004 36V19" stroke="white" stroke-width="2.58693" stroke-linecap="round" stroke-linejoin="round"/>
</svg>
