<svg xmlns="http://www.w3.org/2000/svg" width="22" height="21" viewBox="0 0 22 21" fill="none">
<path d="M17.581 20.7149H4.54855C3.56101 20.7149 2.61391 20.3226 1.91561 19.6243C1.21731 18.926 0.825012 17.9789 0.825012 16.9914V6.75162C0.825012 5.76407 1.21731 4.81698 1.91561 4.11868C2.61391 3.42038 3.56101 3.02808 4.54855 3.02808H5.47944C5.72633 3.02808 5.9631 3.12615 6.13767 3.30073C6.31225 3.4753 6.41033 3.71208 6.41033 3.95896V5.35529C6.41033 5.47873 6.45936 5.59712 6.54665 5.68441C6.63394 5.7717 6.75233 5.82073 6.87577 5.82073C6.99921 5.82073 7.1176 5.7717 7.20489 5.68441C7.29217 5.59712 7.34121 5.47873 7.34121 5.35529V3.95896C7.34121 3.71208 7.43929 3.4753 7.61386 3.30073C7.78844 3.12615 8.02521 3.02808 8.2721 3.02808H13.8574C14.1043 3.02808 14.3411 3.12615 14.5156 3.30073C14.6902 3.4753 14.7883 3.71208 14.7883 3.95896V5.35529C14.7883 5.47873 14.8373 5.59712 14.9246 5.68441C15.0119 5.7717 15.1303 5.82073 15.2537 5.82073C15.3772 5.82073 15.4956 5.7717 15.5829 5.68441C15.6701 5.59712 15.7192 5.47873 15.7192 5.35529V3.95896C15.7192 3.71208 15.8173 3.4753 15.9918 3.30073C16.1664 3.12615 16.4032 3.02808 16.6501 3.02808H17.581C18.5685 3.02808 19.5156 3.42038 20.2139 4.11868C20.9122 4.81698 21.3045 5.76407 21.3045 6.75162V16.9914C21.3045 17.9789 20.9122 18.926 20.2139 19.6243C19.5156 20.3226 18.5685 20.7149 17.581 20.7149ZM4.54855 4.88985C4.05478 4.88985 3.58123 5.086 3.23208 5.43515C2.88293 5.7843 2.68678 6.25785 2.68678 6.75162V16.9914C2.68678 17.4851 2.88293 17.9587 3.23208 18.3078C3.58123 18.657 4.05478 18.8531 4.54855 18.8531H17.581C18.0747 18.8531 18.5483 18.657 18.8974 18.3078C19.2466 17.9587 19.4427 17.4851 19.4427 16.9914V6.75162C19.4427 6.25785 19.2466 5.7843 18.8974 5.43515C18.5483 5.086 18.0747 4.88985 17.581 4.88985V5.35529C17.581 5.97251 17.3358 6.56444 16.8993 7.00088C16.4629 7.43732 15.871 7.6825 15.2537 7.6825C14.6365 7.6825 14.0446 7.43732 13.6081 7.00088C13.1717 6.56444 12.9265 5.97251 12.9265 5.35529V4.88985H9.20298V5.35529C9.20298 5.97251 8.95779 6.56444 8.52136 7.00088C8.08492 7.43732 7.49298 7.6825 6.87577 7.6825C6.25855 7.6825 5.66662 7.43732 5.23018 7.00088C4.79374 6.56444 4.54855 5.97251 4.54855 5.35529V4.88985Z" fill="#C2C2C2"/>
<path d="M20.3736 10.4752H1.7559C1.50901 10.4752 1.27224 10.3771 1.09766 10.2025C0.923088 10.028 0.825012 9.79118 0.825012 9.54429C0.825012 9.2974 0.923088 9.06063 1.09766 8.88605C1.27224 8.71148 1.50901 8.6134 1.7559 8.6134H20.3736C20.6205 8.6134 20.8573 8.71148 21.0318 8.88605C21.2064 9.06063 21.3045 9.2974 21.3045 9.54429C21.3045 9.79118 21.2064 10.028 21.0318 10.2025C20.8573 10.3771 20.6205 10.4752 20.3736 10.4752Z" fill="#C2C2C2"/>
<path d="M6.8758 7.6825C6.25858 7.6825 5.66665 7.43731 5.23021 7.00087C4.79377 6.56443 4.54858 5.9725 4.54858 5.35528V2.56263C4.54858 1.94541 4.79377 1.35348 5.23021 0.917038C5.66665 0.4806 6.25858 0.235413 6.8758 0.235413C7.49301 0.235413 8.08495 0.4806 8.52139 0.917038C8.95782 1.35348 9.20301 1.94541 9.20301 2.56263V5.35528C9.20301 5.9725 8.95782 6.56443 8.52139 7.00087C8.08495 7.43731 7.49301 7.6825 6.8758 7.6825ZM6.8758 2.09718C6.75235 2.09718 6.63397 2.14622 6.54668 2.23351C6.45939 2.3208 6.41035 2.43918 6.41035 2.56263V5.35528C6.41035 5.47873 6.45939 5.59711 6.54668 5.6844C6.63397 5.77169 6.75235 5.82073 6.8758 5.82073C6.99924 5.82073 7.11763 5.77169 7.20492 5.6844C7.2922 5.59711 7.34124 5.47873 7.34124 5.35528V2.56263C7.34124 2.43918 7.2922 2.3208 7.20492 2.23351C7.11763 2.14622 6.99924 2.09718 6.8758 2.09718Z" fill="#C2C2C2"/>
<path d="M15.2537 7.6825C14.6365 7.6825 14.0446 7.43731 13.6081 7.00087C13.1717 6.56443 12.9265 5.9725 12.9265 5.35528V2.56263C12.9265 1.94541 13.1717 1.35348 13.6081 0.917038C14.0446 0.4806 14.6365 0.235413 15.2537 0.235413C15.8709 0.235413 16.4629 0.4806 16.8993 0.917038C17.3358 1.35348 17.5809 1.94541 17.5809 2.56263V5.35528C17.5809 5.9725 17.3358 6.56443 16.8993 7.00087C16.4629 7.43731 15.8709 7.6825 15.2537 7.6825ZM15.2537 2.09718C15.1303 2.09718 15.0119 2.14622 14.9246 2.23351C14.8373 2.3208 14.7883 2.43918 14.7883 2.56263V5.35528C14.7883 5.47873 14.8373 5.59711 14.9246 5.6844C15.0119 5.77169 15.1303 5.82073 15.2537 5.82073C15.3772 5.82073 15.4956 5.77169 15.5828 5.6844C15.6701 5.59711 15.7192 5.47873 15.7192 5.35528V2.56263C15.7192 2.43918 15.6701 2.3208 15.5828 2.23351C15.4956 2.14622 15.3772 2.09718 15.2537 2.09718Z" fill="#C2C2C2"/>
</svg>