<svg xmlns="http://www.w3.org/2000/svg" width="16" height="16" viewBox="0 0 16 16" fill="none">
<path fill-rule="evenodd" clip-rule="evenodd" d="M14.4248 1.91223L14.4568 1.9436C14.5494 2.03427 14.6179 2.10139 14.6756 2.16486C15.6894 3.27951 15.6894 4.96177 14.6756 6.07642C14.6179 6.13988 14.5494 6.20701 14.4568 6.29768L6.88782 13.7144C6.50929 14.0857 6.22242 14.3672 5.86686 14.5647C5.51131 14.7623 5.11757 14.8591 4.59813 14.9868L3.57054 15.24C3.07923 15.3611 2.6314 15.4716 2.26984 15.5067C1.88568 15.5441 1.39283 15.5193 1.00396 15.1431C0.615101 14.7669 0.583534 14.2844 0.616744 13.9075C0.647989 13.5528 0.754931 13.1126 0.872254 12.6297L1.11915 11.6127C1.24585 11.0896 1.3419 10.6931 1.54606 10.3349C1.75021 9.9769 2.04449 9.68889 2.43269 9.30887L9.98134 1.91222C10.0738 1.82157 10.1424 1.75438 10.2071 1.69783C11.3447 0.704482 13.0614 0.704482 14.199 1.69783C14.2638 1.75439 14.3323 1.82153 14.4248 1.91223ZM13.3802 2.96723C13.2647 2.85406 13.2291 2.81971 13.201 2.79514C12.6323 2.29846 11.7738 2.29846 11.2051 2.79514C11.177 2.81971 11.1414 2.85405 11.0259 2.96723L10.6609 3.3249L13.0152 5.63172L13.3802 5.27405C13.4957 5.16087 13.5307 5.1261 13.5558 5.09853C14.0627 4.5412 14.0627 3.70008 13.5558 3.14275C13.5307 3.11518 13.4957 3.0804 13.3802 2.96723ZM3.55485 10.288L9.60027 4.36421L11.9545 6.67103L5.88708 12.6163C5.42221 13.0718 5.28351 13.1992 5.1269 13.2862C4.97029 13.3732 4.78759 13.4245 4.15003 13.5816L3.25644 13.8018C2.69601 13.94 2.35861 14.0211 2.1217 14.0441L2.11023 14.0452L2.11118 14.0339C2.13166 13.8015 2.21013 13.4699 2.34387 12.919L2.55833 12.0358C2.71426 11.3936 2.76564 11.2096 2.85555 11.0518C2.94546 10.8941 3.07847 10.7548 3.55485 10.288ZM9.24994 13.6378C8.83572 13.6378 8.49994 13.9668 8.49994 14.3727C8.49994 14.7786 8.83572 15.1076 9.24994 15.1076H14.4999C14.9142 15.1076 15.2499 14.7786 15.2499 14.3727C15.2499 13.9668 14.9142 13.6378 14.4999 13.6378H9.24994Z" fill="white"/>
</svg>