<svg xmlns="http://www.w3.org/2000/svg" width="44" height="34" viewBox="0 0 44 34" fill="none">
<rect width="44" height="34" rx="17" transform="matrix(1 0 0 -1 -0.00396729 34)" fill="#313131"/>
<path d="M14.3763 19.9276C13.3793 15.9844 15.6197 11.7735 19.4778 10.3151C22.2003 9.28789 25.0933 9.76373 27.2418 11.3052C28.1286 11.9344 27.9812 12.5964 26.8943 12.7462C26.3633 12.8212 25.8345 12.9535 25.303 13.153C21.6921 14.5053 19.704 18.5503 20.8768 22.1704C21.1891 23.1459 21.6936 24.0002 22.3358 24.718C23.045 25.5133 22.7036 26.1148 21.6376 26.0255C18.2629 25.7494 15.2532 23.4294 14.3763 19.9276Z" stroke="white" stroke-width="1.18178" stroke-linecap="round" stroke-linejoin="round"/>
</svg>