<svg
            width="47"
            height="34"
            viewBox="0 0 47 34"
            fill="none"
            xmlns="http://www.w3.org/2000/svg"
          >
            <rect
              x="0.5"
              y="-0.5"
              width="46"
              height="33"
              rx="16.5"
              transform="matrix(1 0 0 -1 0 33)"
              stroke="#1D1D1D"
            />
            <path
              d="M23.8991 12.0814C26.7274 12.0814 29.0202 14.3741 29.0202 17.2024C29.0202 20.0307 26.7274 22.3235 23.8991 22.3235C21.0709 22.3235 18.7781 20.0307 18.7781 17.2024C18.7781 14.3741 21.0709 12.0814 23.8991 12.0814Z"
              stroke="#1D1D1D"
              stroke-width="1.18178"
              stroke-linecap="round"
              stroke-linejoin="round"
            />
            <path
              d="M29.5039 11.2532L29.4014 11.3556M29.4014 22.4014L29.5039 22.5038L29.4014 22.4014ZM18.2533 11.2532L18.3557 11.3556L18.2533 11.2532ZM23.8786 24.6941V24.7571V24.6941ZM23.8786 8.99996V9.06298V8.99996ZM16.063 16.8785H16H16.063ZM31.7571 16.8785H31.6941H31.7571ZM18.3557 22.4014L18.2533 22.5038L18.3557 22.4014Z"
              stroke="#1D1D1D"
              stroke-width="1.57571"
              stroke-linecap="round"
              stroke-linejoin="round"
            />
          </svg> 