<svg xmlns="http://www.w3.org/2000/svg" width="33" height="33" viewBox="0 0 33 33" fill="none">
<path d="M16.3981 3.36047C9.16259 3.36047 3.26648 9.25659 3.26648 16.4921C3.26648 23.7277 9.16259 29.6238 16.3981 29.6238C23.6337 29.6238 29.5298 23.7277 29.5298 16.4921C29.5298 9.25659 23.6337 3.36047 16.3981 3.36047ZM22.6751 13.4718L15.2294 20.9175C15.0456 21.1013 14.7961 21.2064 14.5334 21.2064C14.2708 21.2064 14.0213 21.1013 13.8375 20.9175L10.1212 17.2012C9.74038 16.8204 9.74038 16.1901 10.1212 15.8093C10.502 15.4285 11.1323 15.4285 11.5132 15.8093L14.5334 18.8296L21.2831 12.0799C21.6639 11.6991 22.2942 11.6991 22.6751 12.0799C23.0559 12.4607 23.0559 13.0779 22.6751 13.4718Z" fill="#00B152"/>
</svg>