<svg width="13" height="14" viewBox="0 0 13 14" fill="none" xmlns="http://www.w3.org/2000/svg">
<path id="Vector" fill-rule="evenodd" clip-rule="evenodd" d="M5.67377 12.6725C5.67377 13.1293 6.04359 13.5 6.50047 13.5C6.95735 13.5 7.32806 13.1293 7.32806 12.6725V7.82663H12.1733C12.6302 7.82663 13 7.45594 13 6.99909C13 6.54224 12.6302 6.17245 12.1733 6.17245H7.32806V1.32754C7.32806 0.870687 6.95735 0.5 6.50047 0.5C6.04359 0.5 5.67377 0.870687 5.67377 1.32754V6.17245H0.826696C0.369815 6.17245 0 6.54224 0 6.99909C0 7.45594 0.369815 7.82663 0.826696 7.82663H5.67377V12.6725Z" fill="#00B152"/>
</svg>
