<svg width="113" height="84" viewBox="0 0 113 84" fill="none" xmlns="http://www.w3.org/2000/svg">
<g id="Group 1437253761">
<g id="Group">
<g id="Group_2">
<g id="Group_3">
<path id="Vector" d="M59.2307 62.73L18.0337 73.1533C16.4702 73.5504 14.8819 72.6073 14.5097 71.0438L0.0907319 14.0381C-0.306347 12.4746 0.636715 10.8863 2.20021 10.5141L43.3972 0.0907319C44.9607 -0.306347 46.549 0.636715 46.9212 2.20021L61.3402 59.1811C61.7373 60.7446 60.7942 62.3329 59.2307 62.7051V62.73Z" fill="white"/>
<path id="Vector_2" d="M59.2307 62.73L18.0337 73.1533C16.4702 73.5504 14.8819 72.6073 14.5097 71.0438L0.0907319 14.0381C-0.306347 12.4746 0.636715 10.8863 2.20021 10.5141L43.3972 0.0907319C44.9607 -0.306347 46.549 0.636715 46.9212 2.20021L61.3402 59.1811C61.7373 60.7446 60.7942 62.3329 59.2307 62.7051V62.73Z" fill="white"/>
</g>
</g>
<g id="Group_4">
<path id="Vector_3" d="M35.3971 22.8106C37.4165 17.7873 34.9813 12.0781 29.958 10.0587C24.9347 8.03937 19.2255 10.4746 17.2062 15.4978C15.1868 20.5211 17.622 26.2303 22.6453 28.2497C27.6686 30.269 33.3778 27.8339 35.3971 22.8106Z" fill="#FFB0D7"/>
<g id="Clip path group">
<mask id="mask0_1657_2828" style="mask-type:luminance" maskUnits="userSpaceOnUse" x="16" y="9" width="21" height="20">
<g id="clippath">
<path id="Vector_4" d="M35.3971 22.8106C37.4165 17.7873 34.9813 12.0781 29.958 10.0588C24.9347 8.03943 19.2255 10.4746 17.2062 15.4979C15.1868 20.5212 17.622 26.2304 22.6453 28.2497C27.6686 30.2691 33.3778 27.8339 35.3971 22.8106Z" fill="white"/>
</g>
</mask>
<g mask="url(#mask0_1657_2828)">
<g id="Group_5">
<g id="Group_6">
<path id="Vector_5" d="M24.7356 12.7974C24.81 13.0704 24.6363 13.3434 24.3633 13.4178C24.0903 13.4923 23.8173 13.3186 23.7429 13.0456C23.6684 12.7726 23.8421 12.4996 24.1151 12.4251C24.3881 12.3507 24.6611 12.5244 24.7356 12.7974Z" fill="#2D3962"/>
<g id="Group_7">
<g id="Group_8">
<path id="Vector_6" d="M23.8176 31.063C23.8176 31.063 22.9242 25.8762 24.4877 24.3375C25.1577 23.6922 26.2249 23.32 27.441 22.9973C28.657 22.6747 29.8731 22.5258 30.5928 22.6747C32.5037 23.0966 34.5636 28.3083 34.5636 28.3083L23.8176 31.063Z" fill="#76ADA0"/>
<path id="Vector_7" d="M25.7035 30.5419C25.6539 30.5419 25.6042 30.517 25.6042 30.4674L25.3809 28.6557C25.3809 28.6061 25.4057 28.5565 25.4553 28.5565C25.5049 28.5565 25.5546 28.5813 25.5546 28.6309L25.7779 30.4426C25.7779 30.4922 25.7531 30.5419 25.7035 30.5419Z" fill="#2D3962"/>
<path id="Vector_8" d="M32.5779 28.8046C32.5283 28.8046 32.5035 28.8046 32.4787 28.7302L31.8086 27.0178C31.8086 26.9681 31.8086 26.9185 31.8582 26.8937C31.9079 26.8937 31.9575 26.8937 31.9823 26.9433L32.6524 28.6557C32.6524 28.7054 32.6524 28.755 32.6028 28.7798C32.6028 28.7798 32.6027 28.7798 32.5779 28.7798V28.8046Z" fill="#2D3962"/>
<g id="Group_9">
<path id="Vector_9" d="M27.5904 22.5506C22.3043 24.1389 21.262 18.3068 21.1627 17.6616C21.1627 17.612 21.1627 17.5871 21.1627 17.5375V17.4631C20.9145 16.4455 21.5101 15.4032 22.5028 15.1054L26.8459 13.7156C27.8634 13.393 28.9802 13.8893 29.3773 14.882C30.3452 17.2645 31.4123 21.4338 27.5904 22.6003V22.5506Z" fill="#F4D1BB"/>
<path id="Vector_10" d="M27.4414 17.9841C27.4662 18.1827 27.3421 18.3812 27.1188 18.4309C26.8954 18.4805 26.7217 18.3316 26.6721 18.1082C26.6473 17.9097 26.7713 17.7112 26.9947 17.6615C27.1932 17.6367 27.3918 17.7608 27.4414 17.9841Z" fill="#2D3962"/>
<path id="Vector_11" d="M24.6367 18.5798C24.6367 18.3813 24.7856 18.1827 25.009 18.1827C25.2075 18.1827 25.4061 18.3316 25.4061 18.555C25.4061 18.7535 25.2572 18.9521 25.0338 18.9521C24.8353 18.9521 24.6367 18.8032 24.6367 18.5798Z" fill="#2D3962"/>
<path id="Vector_12" d="M29.8232 17.0412C30.2203 16.8426 30.9648 16.4704 31.3619 16.7433C31.7094 16.9667 31.759 17.4631 31.486 17.7857C31.0641 18.3317 30.1955 18.6047 29.9473 18.7287" fill="#F4D1BB"/>
<g id="Group_10">
<path id="Vector_13" d="M30.5437 17.339C30.5189 17.339 30.4693 17.339 30.4693 17.2894C30.4444 17.2397 30.4693 17.1901 30.4941 17.1653C30.4941 17.1653 30.7671 16.9915 31.189 17.0908C31.2386 17.0908 31.2634 17.1653 31.2634 17.2149C31.2634 17.2645 31.189 17.2894 31.1393 17.2894C30.8167 17.2149 30.6182 17.339 30.5934 17.339C30.5934 17.339 30.5685 17.339 30.5437 17.339Z" fill="#2D3962"/>
<path id="Vector_14" d="M30.7662 17.7609C30.7662 17.7609 30.7414 17.7609 30.7166 17.7609C30.667 17.7361 30.6421 17.6865 30.667 17.6368C30.667 17.6368 30.7414 17.4879 30.8159 17.215C30.8159 17.1653 30.8903 17.1405 30.94 17.1405C30.9896 17.1405 31.0144 17.215 31.0144 17.2646C30.94 17.5624 30.8655 17.7113 30.8655 17.7361C30.8655 17.7609 30.8159 17.7858 30.791 17.7858L30.7662 17.7609Z" fill="#2D3962"/>
</g>
<path id="Vector_15" d="M21.8822 19.3243C21.4355 19.3492 20.6165 19.4484 20.418 19.8703C20.2443 20.2426 20.4676 20.6893 20.8647 20.8382C21.51 21.0864 22.4034 20.8382 22.6764 20.8134" fill="#F4D1BB"/>
<g id="Group_11">
<path id="Vector_16" d="M20.8402 20.2178C20.8402 20.2178 20.7906 20.2178 20.7657 20.1929C20.7161 20.1681 20.7161 20.0937 20.7657 20.044C21.0636 19.7214 21.3862 19.7462 21.3862 19.7462C21.4358 19.7462 21.4854 19.7959 21.4854 19.8455C21.4854 19.8951 21.4358 19.9448 21.3862 19.9448C21.3862 19.9448 21.138 19.9448 20.9146 20.1929C20.9146 20.1929 20.865 20.2178 20.8402 20.2178Z" fill="#2D3962"/>
<path id="Vector_17" d="M21.4113 20.4411C21.4113 20.4411 21.3865 20.4411 21.3616 20.4411C21.3616 20.4411 21.2127 20.3418 20.9894 20.1433C20.9397 20.0937 20.9397 20.044 20.9894 19.9944C21.039 19.9447 21.0886 19.9447 21.1383 19.9944C21.3368 20.1929 21.4857 20.2674 21.4857 20.2674C21.5354 20.2922 21.5602 20.3666 21.5105 20.3915C21.5105 20.4163 21.4609 20.4411 21.4361 20.4411H21.4113Z" fill="#2D3962"/>
</g>
<path id="Vector_18" d="M25.9023 22.4265L26.2746 23.8659L27.8133 23.5929L28.9301 23.0966L28.4089 21.5827L25.9023 22.4265Z" fill="#F4D1BB"/>
<path id="Vector_19" d="M26.349 17.0163C26.4235 16.8922 26.622 16.8177 26.7709 16.7929C26.9198 16.7681 27.168 16.6936 27.3169 16.7681C27.3914 16.7929 27.441 16.8673 27.4162 16.9418C27.4162 17.0411 27.3169 17.1155 27.2425 17.1652C27.168 17.2148 27.0687 17.2396 26.9695 17.2644C26.8454 17.2892 26.7213 17.3141 26.5972 17.3389C26.5724 17.3389 26.5228 17.3389 26.4979 17.3389C26.4235 17.3389 26.349 17.2148 26.3242 17.1403C26.3242 17.0907 26.3242 17.0411 26.3242 17.0163H26.349Z" fill="#2D3962"/>
<path id="Vector_20" d="M25.1326 17.4134C25.0085 17.3389 24.81 17.4134 24.6611 17.463C24.5122 17.5127 24.264 17.5871 24.1896 17.7112C24.1399 17.7857 24.1399 17.8601 24.1896 17.9097C24.2392 17.9842 24.3633 18.009 24.4626 18.009C24.5618 18.009 24.6363 17.9594 24.7356 17.9346C24.8596 17.8849 24.9837 17.8601 25.1078 17.8105C25.1326 17.8105 25.1575 17.8105 25.1823 17.7608C25.2567 17.7112 25.2319 17.5623 25.2071 17.5127C25.2071 17.463 25.1575 17.4382 25.1326 17.4134Z" fill="#2D3962"/>
<path id="Vector_21" d="M20.989 17.3886C20.9145 17.9843 21.6094 19.3492 21.6094 19.3492L22.1554 19.3989L21.7831 17.0412C21.7831 17.0412 21.0386 17.1653 21.0138 17.3886H20.989Z" fill="#2D3962"/>
<path id="Vector_22" d="M29.5264 14.5842C29.8987 15.1302 30.0972 17.2149 30.0972 17.2149L29.6505 17.5127L28.6826 14.6339C28.6826 14.6339 29.4023 14.3857 29.5264 14.5594V14.5842Z" fill="#2D3962"/>
</g>
<path id="Vector_23" d="M26.3235 23.9404C26.1994 23.9404 26.125 23.9404 26.125 23.9404C26.0754 23.9404 26.0257 23.8907 26.0505 23.8163C26.0505 23.7666 26.1002 23.717 26.1746 23.7418C26.1746 23.7418 26.6213 23.8163 27.6389 23.5433C28.2097 23.3944 28.4827 23.2951 28.979 23.0469C29.0286 23.0469 29.0783 23.0469 29.1031 23.0966C29.1031 23.1462 29.1031 23.1958 29.0535 23.2207C28.5571 23.4688 28.2593 23.5681 27.6637 23.717C26.9688 23.8907 26.5469 23.9155 26.2987 23.9155L26.3235 23.9404Z" fill="#2D3962"/>
</g>
<path id="Vector_24" d="M26.0754 19.7463C25.9761 19.7463 25.8768 19.7463 25.7776 19.6966C25.7279 19.6966 25.7031 19.6222 25.7031 19.5725C25.7031 19.5229 25.7776 19.4981 25.8272 19.4981C26.0009 19.5477 26.1995 19.5477 26.3732 19.4981C26.5469 19.4484 26.6958 19.3492 26.7951 19.2251C26.8199 19.1755 26.8944 19.1755 26.944 19.2251C26.9936 19.2499 26.9936 19.3244 26.944 19.374C26.8199 19.5229 26.6462 19.647 26.4228 19.7214C26.2987 19.7711 26.1747 19.7959 26.0506 19.7959L26.0754 19.7463Z" fill="#2D3962"/>
</g>
<path id="Vector_25" d="M21.0378 17.5871L31.3619 14.0382C31.4611 13.9886 31.5356 13.8893 31.486 13.7652C31.4363 13.666 31.3371 13.6163 31.2378 13.6412L20.8889 17.1156C20.7896 17.1404 20.7152 17.2645 20.7648 17.3638V17.4382C20.8145 17.5375 20.9385 17.6119 21.0378 17.5623V17.5871Z" fill="#ACA0F2"/>
<path id="Vector_26" d="M24.264 12.9464C22.9983 13.3186 20.4173 15.0807 20.8889 17.2398L29.3516 14.3362C29.3516 14.3362 28.3589 11.7055 24.264 12.9464Z" fill="#ACA0F2"/>
<path id="Vector_27" d="M26.3991 15.3288C26.3494 15.3288 26.3246 15.304 26.2998 15.2543C26.2998 15.2047 26.2998 15.1551 26.3494 15.1302L29.1538 14.1624C29.2034 14.1624 29.2531 14.1624 29.2779 14.212C29.2779 14.2616 29.2779 14.3113 29.2283 14.3361L26.4239 15.304C26.4239 15.304 26.4239 15.304 26.3991 15.304V15.3288Z" fill="#2D3962"/>
<path id="Vector_28" d="M20.9381 17.2149C20.8885 17.2149 20.8637 17.1901 20.8389 17.1405C20.8389 17.0909 20.8389 17.0412 20.8885 17.0164L24.6111 15.7259C24.6608 15.7259 24.7104 15.7259 24.7352 15.7755C24.7352 15.8252 24.7352 15.8748 24.6856 15.8996L20.963 17.1901C20.963 17.1901 20.963 17.1901 20.9381 17.1901V17.2149Z" fill="#2D3962"/>
</g>
</g>
</g>
</g>
</g>
<path id="Vector_29" d="M36.5131 28.749L21.9092 32.4444L22.3719 34.2729L36.9758 30.5775L36.5131 28.749Z" fill="#76ADA0"/>
<g id="Group_12">
<path id="Vector_30" d="M37.4293 49.0124L52.0332 45.317L51.5705 43.4885L36.9666 47.1839L37.4293 49.0124Z" fill="#76ADA0"/>
<path id="Vector_31" d="M38.5719 53.4997L53.1758 49.8043L52.7131 47.9758L38.1092 51.6712L38.5719 53.4997Z" fill="#B7CAF7"/>
<path id="Vector_32" d="M39.6881 57.9871L54.292 54.2917L53.8293 52.4633L39.2254 56.1586L39.6881 57.9871Z" fill="#FFB0D7"/>
<g id="Group_13">
<path id="Vector_33" d="M40.0967 34.6864C39.8982 34.6864 39.7245 34.5623 39.6748 34.3637C39.6252 34.1156 39.7493 33.8922 39.9975 33.8178L48.4354 31.6835C48.6836 31.6338 48.9069 31.7579 48.9814 32.0061C49.031 32.2543 48.9069 32.4776 48.6588 32.5521L40.2208 34.6864C40.196 34.6864 40.1464 34.6864 40.1216 34.6864H40.0967Z" fill="#2D3962"/>
<path id="Vector_34" d="M40.8663 37.8133C40.6677 37.8133 40.494 37.6892 40.4444 37.4907C40.3947 37.2425 40.5188 37.0192 40.767 36.9447L49.2049 34.8104C49.4531 34.7608 49.6765 34.8849 49.7509 35.133C49.8006 35.3812 49.6765 35.6046 49.4283 35.679L40.9904 37.8133C40.9655 37.8133 40.9159 37.8133 40.8911 37.8133H40.8663Z" fill="#2D3962"/>
<path id="Vector_35" d="M41.6602 40.9652C41.4617 40.9652 41.288 40.8411 41.2383 40.6426C41.1887 40.3944 41.3128 40.1711 41.561 40.0966L49.9989 37.9623C50.2222 37.9127 50.4704 38.0368 50.5449 38.285C50.5945 38.5331 50.4704 38.7565 50.2222 38.8309L41.7843 40.9652C41.7595 40.9652 41.7099 40.9652 41.685 40.9652H41.6602Z" fill="#2D3962"/>
<path id="Vector_36" d="M12.7481 41.6104C12.5496 41.6104 12.3759 41.4863 12.3262 41.2878C12.2766 41.0396 12.4007 40.8163 12.6488 40.7418L37.4415 34.463C37.6896 34.4134 37.913 34.5374 37.9874 34.7856C38.0371 35.0338 37.913 35.2572 37.6648 35.3316L12.8722 41.6104C12.8474 41.6104 12.7977 41.6104 12.7729 41.6104H12.7481Z" fill="#2D3962"/>
<path id="Vector_37" d="M13.5421 44.7375C13.3435 44.7375 13.1698 44.6134 13.1202 44.4149C13.0705 44.1667 13.1946 43.9433 13.4428 43.8689L38.2354 37.5901C38.4836 37.5404 38.7069 37.6645 38.7814 37.9127C38.831 38.1609 38.7069 38.3842 38.4588 38.4587L13.6661 44.7375C13.6413 44.7375 13.5917 44.7375 13.5669 44.7375H13.5421Z" fill="#2D3962"/>
<path id="Vector_38" d="M14.337 47.8644C14.1384 47.8644 13.9647 47.7404 13.9151 47.5418C13.8654 47.2936 13.9895 47.0703 14.2377 46.9958L39.0303 40.717C39.2785 40.6674 39.5019 40.7915 39.5763 41.0397C39.626 41.2878 39.5019 41.5112 39.2537 41.5856L14.4611 47.8644C14.4362 47.8644 14.3866 47.8644 14.3618 47.8644H14.337Z" fill="#2D3962"/>
</g>
<path id="Vector_39" d="M15.8751 53.771C15.6765 53.771 15.5028 53.6469 15.4532 53.4235C15.4035 53.1753 15.5276 52.952 15.7758 52.8775L33.4706 48.4104C33.7188 48.3607 33.9422 48.4848 34.0166 48.733C34.0662 48.9812 33.9422 49.2045 33.694 49.279L15.9992 53.7461C15.9743 53.7461 15.9247 53.7461 15.8999 53.7461L15.8751 53.771Z" fill="#2D3962"/>
<path id="Vector_40" d="M16.6944 56.9973C16.4959 56.9973 16.3221 56.8732 16.2725 56.6498C16.2229 56.4017 16.347 56.1783 16.5951 56.1038L34.29 51.6367C34.5381 51.5871 34.7615 51.7112 34.836 51.9593C34.8856 52.2075 34.7615 52.4309 34.5133 52.5053L16.8185 56.9725C16.7937 56.9725 16.744 56.9725 16.7192 56.9725L16.6944 56.9973Z" fill="#2D3962"/>
<path id="Vector_41" d="M17.5137 60.2235C17.3152 60.2235 17.1415 60.0994 17.0918 59.876C17.0422 59.6278 17.1663 59.4045 17.4145 59.33L35.1093 54.8629C35.3575 54.8133 35.5808 54.9374 35.6553 55.1855C35.7049 55.4337 35.5808 55.6571 35.3327 55.7315L17.6378 60.1986C17.613 60.1986 17.5634 60.1986 17.5386 60.1986L17.5137 60.2235Z" fill="#2D3962"/>
<path id="Vector_42" d="M18.3321 63.4498C18.1336 63.4498 17.9598 63.3257 17.9102 63.1023C17.8606 62.8542 17.9847 62.6308 18.2328 62.5563L25.9262 60.6206C26.1744 60.571 26.3978 60.695 26.4722 60.9432C26.5219 61.1914 26.3978 61.4147 26.1496 61.4892L18.4562 63.425C18.4314 63.425 18.3817 63.425 18.3569 63.425L18.3321 63.4498Z" fill="#2D3962"/>
</g>
</g>
<g id="Group_14">
<g id="Group_15">
<g id="Group_16">
<path id="Vector_43" d="M65.2967 10.3687L47.5196 66.4092C47.0347 67.9378 47.8808 69.57 49.4093 70.0549L89.9316 82.9093C91.4602 83.3942 93.0924 82.5482 93.5773 81.0196L111.354 24.9791C111.839 23.4505 110.993 21.8183 109.465 21.3334L68.9424 8.47898C67.4138 7.99409 65.7816 8.84016 65.2967 10.3687Z" fill="white"/>
<path id="Vector_44" d="M65.2967 10.3687L47.5196 66.4092C47.0347 67.9378 47.8808 69.57 49.4093 70.0549L89.9316 82.9093C91.4602 83.3942 93.0924 82.5482 93.5773 81.0196L111.354 24.9791C111.839 23.4505 110.993 21.8183 109.465 21.3334L68.9424 8.47898C67.4138 7.99409 65.7816 8.84016 65.2967 10.3687Z" fill="white"/>
</g>
</g>
<g id="Group_17">
<path id="Vector_45" d="M93.3345 33.2558C96.0005 28.5437 94.3418 22.5626 89.6297 19.8967C84.9176 17.2307 78.9365 18.8894 76.2705 23.6015C73.6046 28.3136 75.2633 34.2947 79.9754 36.9607C84.6875 39.6266 90.6686 37.9679 93.3345 33.2558Z" fill="#B7CAF7"/>
<g id="Clip path group_2">
<mask id="mask1_1657_2828" style="mask-type:luminance" maskUnits="userSpaceOnUse" x="74" y="18" width="21" height="21">
<g id="clippath-1">
<path id="Vector_46" d="M93.3345 33.2558C96.0005 28.5437 94.3418 22.5626 89.6297 19.8967C84.9176 17.2307 78.9365 18.8894 76.2705 23.6015C73.6046 28.3136 75.2633 34.2947 79.9754 36.9607C84.6875 39.6266 90.6686 37.9679 93.3345 33.2558Z" fill="white"/>
</g>
</mask>
<g mask="url(#mask1_1657_2828)">
<g id="Group_18">
<g id="Group_19">
<g id="Group_20">
<path id="Vector_47" d="M76.7285 36.7709C76.7285 36.7709 78.6891 31.8818 80.8482 31.4103C81.7665 31.2118 82.8584 31.46 84.0497 31.8074C85.2657 32.1797 86.3577 32.676 86.8789 33.1972C88.2935 34.5621 87.3007 40.0716 87.3007 40.0716L76.7285 36.7709Z" fill="#504B99"/>
<path id="Vector_48" d="M78.6647 37.3417C78.6647 37.3417 78.6398 37.3417 78.615 37.3417C78.5654 37.3417 78.5406 37.2672 78.5654 37.2176L79.3347 35.5052C79.3347 35.4555 79.4092 35.4307 79.4588 35.4555C79.5085 35.4555 79.5333 35.53 79.5085 35.5796L78.7391 37.292C78.7391 37.3168 78.6895 37.3417 78.6399 37.3417H78.6647Z" fill="#2D3962"/>
<path id="Vector_49" d="M85.4394 39.4759C85.3898 39.4759 85.3402 39.4263 85.365 39.3518L85.7124 37.4905C85.7124 37.4409 85.7621 37.3913 85.8365 37.4161C85.8862 37.4161 85.9358 37.4657 85.911 37.5402L85.5635 39.4015C85.5635 39.4511 85.5139 39.4759 85.4643 39.4759H85.4394Z" fill="#2D3962"/>
<g id="Group_21">
<path id="Vector_50" d="M84.4474 31.4599C79.1613 29.8964 81.4941 24.4614 81.7671 23.841C81.7671 23.7913 81.7919 23.7665 81.8167 23.7169V23.6424C82.2138 22.6746 83.281 22.1286 84.2985 22.4016L88.716 23.6176C89.7335 23.8906 90.3788 24.9329 90.1802 25.9753C89.6839 28.5067 88.2941 32.5767 84.4474 31.4351V31.4599Z" fill="#E8B28E"/>
<path id="Vector_51" d="M86.7798 27.5635C86.7054 27.7621 86.4572 27.8365 86.2835 27.7621C86.085 27.6876 86.0105 27.4395 86.085 27.2657C86.1594 27.0672 86.4076 26.9927 86.5813 27.0672C86.7798 27.1417 86.8543 27.3898 86.7798 27.5635Z" fill="#2D3962"/>
<path id="Vector_52" d="M84.2237 26.6701C84.323 26.4964 84.5712 26.422 84.7449 26.5461C84.9186 26.6453 84.9931 26.8935 84.869 27.0672C84.7449 27.2409 84.5215 27.3154 84.3478 27.1913C84.1741 27.092 84.0996 26.8439 84.2237 26.6701Z" fill="#2D3962"/>
<path id="Vector_53" d="M85.3159 28.7548C85.2167 28.7548 85.1174 28.7548 85.0181 28.73C84.7948 28.6804 84.5714 28.5563 84.4473 28.4074C84.4225 28.3578 84.4225 28.3081 84.4473 28.2585C84.497 28.2337 84.5466 28.2337 84.5962 28.2585C84.7203 28.3826 84.894 28.4818 85.0678 28.5315C85.2415 28.5811 85.4152 28.5811 85.5889 28.5315C85.6386 28.5315 85.6882 28.5315 85.713 28.6059C85.713 28.6556 85.713 28.7052 85.6386 28.73C85.5393 28.7548 85.4152 28.7796 85.3159 28.7796V28.7548Z" fill="#2D3962"/>
<path id="Vector_54" d="M89.336 28.1096C89.7827 28.1593 90.6017 28.2585 90.7754 28.7052C90.9243 29.0775 90.7009 29.5242 90.3039 29.6483C89.6586 29.8717 88.7652 29.6483 88.4922 29.5738" fill="#E8B28E"/>
<g id="Group_22">
<path id="Vector_55" d="M90.3542 29.0277C90.3294 29.0277 90.3046 29.0277 90.2798 29.0029C90.0564 28.7548 89.8083 28.7548 89.8083 28.7548C89.7586 28.7548 89.709 28.7051 89.709 28.6555C89.709 28.6059 89.7586 28.5562 89.8083 28.5562C89.8083 28.5562 90.1557 28.5562 90.4287 28.8788C90.4535 28.9285 90.4535 28.9781 90.4287 29.0277C90.4287 29.0277 90.3791 29.0526 90.3542 29.0526V29.0277Z" fill="#2D3962"/>
<path id="Vector_56" d="M89.7834 29.2263C89.7586 29.2263 89.709 29.2263 89.709 29.1767C89.6841 29.127 89.709 29.0774 89.7586 29.0526C89.7586 29.0526 89.9075 28.9781 90.106 28.7796C90.1557 28.7548 90.2053 28.7548 90.2549 28.7796C90.2798 28.8292 90.2798 28.8789 90.2549 28.9285C90.0316 29.127 89.8827 29.2263 89.8579 29.2263C89.8579 29.2263 89.833 29.2263 89.8082 29.2263H89.7834Z" fill="#2D3962"/>
</g>
<path id="Vector_57" d="M81.4443 25.6527C81.0472 25.4293 80.3275 25.0571 79.9056 25.3052C79.5581 25.5286 79.5085 26.0001 79.7567 26.3476C80.1538 26.8936 81.0224 27.2162 81.2954 27.3155" fill="#E8B28E"/>
<g id="Group_23">
<path id="Vector_58" d="M80.7505 25.9256H80.7009C80.7009 25.9256 80.5024 25.7767 80.1798 25.8759C80.1301 25.8759 80.0805 25.8759 80.0557 25.8015C80.0557 25.7519 80.0557 25.7022 80.1301 25.6774C80.552 25.5781 80.8002 25.7519 80.825 25.7767C80.8746 25.8015 80.8746 25.8759 80.825 25.9008C80.825 25.9256 80.7754 25.9504 80.7505 25.9504V25.9256Z" fill="#2D3962"/>
<path id="Vector_59" d="M80.5021 26.3475C80.4773 26.3475 80.4276 26.3475 80.4028 26.2978C80.4028 26.2978 80.3284 26.1241 80.2539 25.8263C80.2539 25.7767 80.2539 25.727 80.3284 25.7022C80.378 25.7022 80.4276 25.7022 80.4524 25.7767C80.5021 26.0497 80.5765 26.1986 80.5765 26.1986C80.5765 26.2482 80.5765 26.2978 80.5269 26.3226C80.5269 26.3226 80.5021 26.3226 80.4773 26.3226L80.5021 26.3475Z" fill="#2D3962"/>
</g>
<path id="Vector_60" d="M83.1073 30.4424L82.6357 31.857L84.0007 32.5519L85.2912 32.676L85.6635 31.1125L83.1073 30.4424Z" fill="#E8B28E"/>
<path id="Vector_61" d="M86.4577 26.1986C86.5818 26.1241 86.7803 26.1986 86.9292 26.2482C87.0781 26.2978 87.3263 26.3971 87.4007 26.5212C87.4504 26.5956 87.4255 26.6701 87.4007 26.7197C87.3511 26.7942 87.227 26.819 87.1277 26.7942C87.0285 26.7942 86.954 26.7445 86.8547 26.7197C86.7307 26.6701 86.6066 26.6204 86.4825 26.5956C86.4577 26.5956 86.4328 26.5956 86.408 26.546C86.3336 26.4964 86.3584 26.3475 86.3832 26.2978C86.3832 26.2482 86.4329 26.2234 86.4577 26.1986Z" fill="#2D3962"/>
<path id="Vector_62" d="M85.217 25.8263C85.1425 25.7022 84.944 25.6278 84.7951 25.603C84.6462 25.5781 84.398 25.5037 84.2491 25.5533C84.1746 25.5781 84.125 25.6526 84.125 25.727C84.125 25.8263 84.1994 25.9008 84.2987 25.9504C84.3732 26 84.4724 26.0248 84.5717 26.0497C84.6958 26.0745 84.8199 26.1241 84.944 26.1489C84.9688 26.1489 85.0184 26.1489 85.0432 26.1489C85.1177 26.1489 85.1921 26.0248 85.217 25.9504C85.217 25.9008 85.217 25.8511 85.217 25.8263Z" fill="#2D3962"/>
<path id="Vector_63" d="M81.1963 25.5286L81.5686 26.149L82.3131 23.9899L81.9408 23.7914C81.7919 23.7417 81.6182 23.6424 81.5934 23.7914L81.1963 25.4789V25.5286Z" fill="#2D3962"/>
<path id="Vector_64" d="M89.6335 28.1344L89.1123 28.4322L89.6087 25.876L89.8568 25.8264C90.1298 25.7767 90.3035 26.0249 90.2539 26.2979C90.0802 27.1665 89.6335 28.1344 89.6335 28.1344Z" fill="#2D3962"/>
</g>
<path id="Vector_65" d="M85.316 32.8746C84.7701 32.8001 84.4474 32.7505 83.8766 32.5767C82.8343 32.2293 82.462 31.9315 82.462 31.9315C82.4124 31.9067 82.4124 31.8322 82.462 31.7826C82.4868 31.733 82.5613 31.733 82.6109 31.7826C82.6109 31.7826 82.9584 32.0804 83.9511 32.403C84.5219 32.5767 84.7949 32.6264 85.3657 32.7008C85.4153 32.7008 85.4649 32.7505 85.4401 32.8001C85.4401 32.8497 85.3905 32.8746 85.3409 32.8746H85.316Z" fill="#2D3962"/>
</g>
<path id="Vector_66" d="M81.6174 23.8658C81.5678 23.841 81.9401 22.3271 83.9255 21.6323C85.0422 21.2352 86.4568 21.4337 87.5736 21.9301C90.8495 23.4191 90.2291 26.2483 90.2291 26.2483C89.8817 26.2483 89.559 26.1987 89.1619 26.149C89.0379 26.149 88.8145 25.603 88.8145 25.603C88.8145 25.603 88.4919 26.0498 88.3182 26.0249C87.2014 25.8264 86.0101 25.479 84.9678 25.1315C84.8685 25.1067 84.7941 24.5359 84.7941 24.5359C84.7941 24.5359 84.4466 24.9578 84.3474 24.9082C84.1488 24.8337 83.9751 24.7841 83.8014 24.7096C83.6773 24.66 83.6028 23.9899 83.6028 23.9899C83.6028 23.9899 83.1065 24.4614 82.9824 24.387C82.1634 24.0644 81.6423 23.841 81.6423 23.841L81.6174 23.8658Z" fill="#2D3962"/>
</g>
</g>
</g>
</g>
</g>
<path id="Vector_67" d="M88.4274 42.041L74.0684 37.4861L73.4981 39.2839L87.8571 43.8389L88.4274 42.041Z" fill="#FFB0D7"/>
<g id="Group_24">
<path id="Vector_68" d="M72.4938 55.811L58.1348 51.256L57.5645 53.0539L71.9235 57.6088L72.4938 55.811Z" fill="#76ADA0"/>
<path id="Vector_69" d="M71.0993 60.2467L56.7402 55.6918L56.1699 57.4896L70.529 62.0446L71.0993 60.2467Z" fill="#FFB0D7"/>
<path id="Vector_70" d="M69.7057 64.6502L55.3467 60.0953L54.7764 61.8931L69.1354 66.4481L69.7057 64.6502Z" fill="#B7CAF7"/>
<g id="Group_25">
<path id="Vector_71" d="M70.2014 43.1489C70.1518 43.1489 70.1021 43.1489 70.0773 43.1489L61.7635 40.5183C61.5401 40.4438 61.3912 40.1956 61.4657 39.9723C61.5401 39.7489 61.7883 39.6 62.0116 39.6745L70.3255 42.3051C70.5488 42.3796 70.6978 42.6277 70.6233 42.8511C70.5737 43.0496 70.3999 43.1489 70.2014 43.1489Z" fill="#2D3962"/>
<path id="Vector_72" d="M69.2092 46.2263C69.1596 46.2263 69.1099 46.2263 69.0851 46.2263L60.7713 43.5956C60.5479 43.5212 60.399 43.273 60.4735 43.0497C60.5479 42.8263 60.7961 42.6774 61.0195 42.7519L69.3333 45.3825C69.5567 45.4569 69.7056 45.7051 69.6311 45.9285C69.5815 46.127 69.4078 46.2263 69.2092 46.2263Z" fill="#2D3962"/>
<path id="Vector_73" d="M68.2414 49.3284C68.1918 49.3284 68.1422 49.3284 68.1174 49.3284L59.8035 46.6978C59.5802 46.6233 59.4312 46.3751 59.5057 46.1518C59.5801 45.9284 59.8283 45.7795 60.0517 45.854L68.3655 48.4846C68.5889 48.5591 68.7378 48.8072 68.6633 49.0306C68.6137 49.2291 68.44 49.3284 68.2414 49.3284Z" fill="#2D3962"/>
<path id="Vector_74" d="M97.08 51.6613C97.0303 51.6613 96.9807 51.6613 96.9559 51.6613L72.5603 43.9431C72.337 43.8686 72.1881 43.6204 72.2625 43.3971C72.337 43.1737 72.5852 43.0248 72.8085 43.0993L97.2041 50.8175C97.4274 50.8919 97.5763 51.1401 97.5019 51.3635C97.4522 51.562 97.2785 51.6613 97.08 51.6613Z" fill="#2D3962"/>
<path id="Vector_75" d="M96.1112 54.7635C96.0616 54.7635 96.012 54.7635 95.9871 54.7635L71.5916 47.0453C71.3682 46.9708 71.2193 46.7227 71.2938 46.4993C71.3682 46.2759 71.6164 46.127 71.8398 46.2015L96.2353 53.9197C96.4587 53.9942 96.6076 54.2423 96.5331 54.4657C96.4835 54.6642 96.3098 54.7635 96.1112 54.7635Z" fill="#2D3962"/>
<path id="Vector_76" d="M95.119 57.8408C95.0694 57.8408 95.0198 57.8408 94.995 57.8408L70.5994 50.1226C70.376 50.0482 70.2271 49.8 70.3016 49.5766C70.376 49.3533 70.6242 49.2044 70.8476 49.2788L95.2431 56.9971C95.4665 57.0715 95.6154 57.3197 95.5409 57.543C95.4913 57.7416 95.3176 57.8408 95.119 57.8408Z" fill="#2D3962"/>
</g>
<path id="Vector_77" d="M93.2328 63.6233C93.1832 63.6233 93.1336 63.6233 93.1087 63.6233L75.7117 58.1139C75.4884 58.0394 75.3394 57.7912 75.4139 57.5431C75.4884 57.3197 75.7365 57.1708 75.9847 57.2453L93.3817 62.7547C93.6051 62.8292 93.754 63.0774 93.6795 63.3255C93.6299 63.5241 93.4314 63.6482 93.2576 63.6482L93.2328 63.6233Z" fill="#2D3962"/>
<path id="Vector_78" d="M92.2406 66.7999C92.191 66.7999 92.1414 66.7999 92.1165 66.7999L74.7195 61.2904C74.4962 61.216 74.3473 60.9678 74.4217 60.7196C74.4962 60.4963 74.7443 60.3474 74.9925 60.4218L92.3895 65.9313C92.6129 66.0058 92.7618 66.2539 92.6874 66.5021C92.6377 66.7006 92.4392 66.8247 92.2655 66.8247L92.2406 66.7999Z" fill="#2D3962"/>
<path id="Vector_79" d="M91.2231 69.9767C91.1734 69.9767 91.1238 69.9767 91.099 69.9767L73.7019 64.4672C73.4786 64.3927 73.3297 64.1446 73.4041 63.8964C73.4786 63.673 73.7268 63.5241 73.9749 63.5986L91.372 69.1081C91.5953 69.1825 91.7442 69.4307 91.6698 69.6789C91.6201 69.8774 91.4216 70.0015 91.2479 70.0015L91.2231 69.9767Z" fill="#2D3962"/>
<path id="Vector_80" d="M90.2303 73.1532C90.1807 73.1532 90.131 73.1532 90.1062 73.1532L82.5369 70.7459C82.3135 70.6715 82.1646 70.4233 82.2391 70.1752C82.3135 69.9518 82.5617 69.8029 82.8099 69.8773L90.3792 72.2846C90.6026 72.3591 90.7515 72.6073 90.677 72.8554C90.6274 73.054 90.4288 73.1781 90.2551 73.1781L90.2303 73.1532Z" fill="#2D3962"/>
</g>
<path id="Vector_81" d="M75.0654 72.8307C75.0158 72.8307 74.9662 72.8307 74.9414 72.8307L67.4217 70.4482C67.1983 70.3738 67.0494 70.1256 67.1239 69.8774C67.1983 69.6541 67.4465 69.5052 67.6947 69.5796L75.2143 71.9621C75.4377 72.0365 75.5866 72.2847 75.5122 72.5329C75.4625 72.7314 75.264 72.8555 75.0903 72.8555L75.0654 72.8307Z" fill="#2D3962"/>
</g>
<g id="Group_26">
<g id="Group_27">
<g id="Group_28">
<path id="Vector_82" d="M75.1659 16.5696H32.6536C31.05 16.5696 29.75 17.8696 29.75 19.4732V78.2657C29.75 79.8694 31.05 81.1694 32.6536 81.1694H75.1659C76.7696 81.1694 78.0696 79.8694 78.0696 78.2657V19.4732C78.0696 17.8696 76.7696 16.5696 75.1659 16.5696Z" fill="white"/>
<path id="Vector_83" d="M75.1659 16.5696H32.6536C31.05 16.5696 29.75 17.8696 29.75 19.4732V78.2657C29.75 79.8694 31.05 81.1694 32.6536 81.1694H75.1659C76.7696 81.1694 78.0696 79.8694 78.0696 78.2657V19.4732C78.0696 17.8696 76.7696 16.5696 75.1659 16.5696Z" fill="white"/>
</g>
</g>
<g id="Group_29">
<path id="Vector_84" d="M63.5059 33.1123C64.733 27.8392 61.453 22.5697 56.1799 21.3426C50.9068 20.1156 45.6374 23.3955 44.4103 28.6686C43.1832 33.9417 46.4632 39.2111 51.7363 40.4382C57.0093 41.6653 62.2788 38.3854 63.5059 33.1123Z" fill="#FFB0D7"/>
<g id="Clip path group_3">
<mask id="mask2_1657_2828" style="mask-type:luminance" maskUnits="userSpaceOnUse" x="44" y="21" width="20" height="20">
<g id="clippath-2">
<path id="Vector_85" d="M63.5059 33.1123C64.733 27.8392 61.453 22.5698 56.1799 21.3427C50.9068 20.1156 45.6374 23.3956 44.4103 28.6687C43.1832 33.9417 46.4632 39.2112 51.7363 40.4383C57.0093 41.6654 62.2788 38.3854 63.5059 33.1123Z" fill="white"/>
</g>
</mask>
<g mask="url(#mask2_1657_2828)">
<g id="Group_30">
<g id="Group_31">
<path id="Vector_86" d="M48.9091 29.3257C48.9091 30.8148 48.8098 32.9739 48.6361 34.463C48.5617 35.0834 48.9091 35.5549 49.3062 35.679C51.4901 36.3491 56.4784 36.2746 58.7368 35.679C59.1587 35.5797 59.5061 35.0834 59.4069 34.4381C59.2083 32.8995 58.8857 30.1695 58.8113 27.5389C58.7864 26.6703 52.6069 27.2907 50.0755 27.5637C49.4551 27.6382 48.8843 27.4396 48.8843 29.3009L48.9091 29.3257Z" fill="#2D3962"/>
<g id="Group_32">
<path id="Vector_87" d="M49.2812 40.9899C49.2812 40.9899 49.6287 36.2746 51.3411 35.2819C52.0608 34.86 53.0783 34.7607 54.1951 34.7607C55.3367 34.7607 56.4039 34.8848 56.9995 35.1826C58.563 35.9768 59.233 40.9651 59.233 40.9651H49.2812V40.9899Z" fill="#B7CAF7"/>
<path id="Vector_88" d="M50.7217 40.9652C50.672 40.9652 50.6224 40.9155 50.6472 40.8659L50.8706 39.0046C50.8706 38.9549 50.9202 38.9053 50.9699 38.9301C51.0195 38.9301 51.0691 38.9798 51.0443 39.0294L50.8209 40.8907C50.8209 40.9403 50.7713 40.9652 50.7217 40.9652Z" fill="#2D3962"/>
<path id="Vector_89" d="M57.8187 40.9651C57.7691 40.9651 57.7195 40.9403 57.7195 40.8907L57.4961 39.0294C57.4961 38.9798 57.5209 38.9301 57.5705 38.9301C57.6202 38.9301 57.6698 38.9549 57.6698 39.0046L57.8932 40.8659C57.8932 40.9155 57.8684 40.9651 57.8187 40.9651Z" fill="#2D3962"/>
<g id="Group_33">
<path id="Vector_90" d="M54.4446 34.3388C48.9352 34.5125 49.4315 28.6308 49.506 27.9607C49.506 27.9111 49.506 27.8863 49.506 27.8366V27.7622C49.5556 26.7199 50.3994 25.8761 51.4417 25.8264L56.0329 25.5783C57.1001 25.5286 58.0183 26.298 58.1672 27.3403C58.4899 29.8965 58.4651 34.1899 54.4446 34.3388Z" fill="#E8B28E"/>
<path id="Vector_91" d="M55.4368 29.9213C55.4368 30.1199 55.2382 30.2936 55.0149 30.2688C54.8163 30.2688 54.6426 30.0702 54.6674 29.8469C54.6674 29.6483 54.866 29.4746 55.0893 29.4994C55.2878 29.4994 55.4616 29.698 55.4368 29.9213Z" fill="#2D3962"/>
<path id="Vector_92" d="M52.7317 29.8469C52.7813 29.6484 52.9798 29.5243 53.1784 29.5491C53.3769 29.5987 53.501 29.7973 53.4762 29.9958C53.4266 30.1944 53.228 30.3184 53.0295 30.2936C52.8309 30.244 52.7068 30.0455 52.7317 29.8469Z" fill="#2D3962"/>
<path id="Vector_93" d="M54.048 31.5593C53.8495 31.5593 53.651 31.5096 53.5021 31.4352C53.4524 31.4352 53.4524 31.3607 53.4772 31.3111C53.4772 31.2615 53.5517 31.2615 53.6013 31.2863C53.7502 31.3856 53.9488 31.4104 54.1473 31.3856C54.321 31.3856 54.4948 31.3111 54.6437 31.2118C54.6933 31.187 54.7429 31.2118 54.7677 31.2118C54.7926 31.2615 54.7677 31.3111 54.7677 31.3359C54.6188 31.46 54.4203 31.5345 54.1969 31.5345C54.1721 31.5345 54.1225 31.5345 54.0977 31.5345L54.048 31.5593Z" fill="#2D3962"/>
<g id="Group_34">
<path id="Vector_94" d="M58.0414 29.6235C58.4633 29.5242 59.2822 29.3753 59.6049 29.7227C59.8779 30.0205 59.8034 30.5169 59.456 30.7651C58.91 31.187 57.9917 31.2366 57.7188 31.2614" fill="#E8B28E"/>
<g id="Group_35">
<path id="Vector_95" d="M59.2818 30.1694C59.2818 30.1694 59.257 30.1694 59.2322 30.1694C58.9344 29.9957 58.6862 30.0701 58.6862 30.0701C58.6365 30.0701 58.5869 30.0701 58.5869 30.0205C58.5869 29.9709 58.5869 29.9212 58.6365 29.9212C58.6365 29.9212 58.9592 29.822 59.3066 30.0205C59.3563 30.0205 59.3563 30.095 59.3314 30.1446C59.3314 30.1694 59.2818 30.1942 59.257 30.1942L59.2818 30.1694Z" fill="#2D3962"/>
<path id="Vector_96" d="M58.786 30.5417H58.7364C58.7116 30.5169 58.7116 30.4424 58.7364 30.4176C58.7364 30.4176 58.8605 30.2935 58.9846 30.0453C58.9846 29.9957 59.059 29.9957 59.1086 30.0205C59.1583 30.0205 59.1583 30.095 59.1335 30.1446C58.9846 30.4176 58.8605 30.5417 58.8605 30.5417C58.8605 30.5417 58.8108 30.5665 58.786 30.5665V30.5417Z" fill="#2D3962"/>
</g>
</g>
<g id="Group_36">
<path id="Vector_97" d="M49.779 29.7724C49.3571 29.6979 48.5381 29.549 48.2155 29.9461C47.9673 30.2687 48.0418 30.7403 48.3892 30.9885C48.96 31.3855 49.8782 31.4104 50.1512 31.4352" fill="#E8B28E"/>
<g id="Group_37">
<path id="Vector_98" d="M48.5632 30.3681C48.5384 30.3681 48.5136 30.3681 48.4888 30.3184C48.464 30.2688 48.4888 30.2192 48.5136 30.1943C48.8611 29.971 49.1837 30.0703 49.1837 30.0703C49.2333 30.0703 49.2581 30.1199 49.2333 30.1695C49.2333 30.2192 49.1837 30.244 49.1341 30.2192C49.1341 30.2192 48.8859 30.1447 48.5881 30.3433C48.5881 30.3433 48.5632 30.3433 48.5384 30.3433L48.5632 30.3681Z" fill="#2D3962"/>
<path id="Vector_99" d="M49.0599 30.7155C49.0599 30.7155 49.0103 30.7155 49.0103 30.6907C49.0103 30.6907 48.8862 30.5666 48.7373 30.2936C48.7373 30.2439 48.7373 30.1943 48.7621 30.1695C48.8118 30.1695 48.8614 30.1695 48.8862 30.1943C49.0351 30.4425 49.1344 30.5418 49.1344 30.5418C49.1592 30.5666 49.1592 30.641 49.1344 30.6658L49.0847 30.6907L49.0599 30.7155Z" fill="#2D3962"/>
</g>
</g>
<path id="Vector_100" d="M52.9805 33.7928L52.8564 35.2819L55.636 35.2322L55.4375 33.6439L52.9805 33.7928Z" fill="#E8B28E"/>
<path id="Vector_101" d="M54.7176 28.8046C54.8169 28.7053 55.0154 28.7053 55.1395 28.7053C55.2636 28.7053 55.5118 28.7053 55.611 28.8046C55.6607 28.8542 55.6855 28.9287 55.6607 28.9783C55.6358 29.0528 55.5366 29.1024 55.4373 29.1272C55.3629 29.1272 55.2636 29.1272 55.1891 29.1272C55.065 29.1272 54.9658 29.1272 54.8417 29.1272C54.8169 29.1272 54.7921 29.1272 54.7672 29.1272C54.6928 29.1024 54.668 28.9783 54.668 28.9039C54.668 28.8542 54.668 28.8294 54.7176 28.8046Z" fill="#2D3962"/>
<path id="Vector_102" d="M53.3522 28.8542C53.2529 28.7549 53.0544 28.7549 52.9303 28.7797C52.8062 28.7797 52.5581 28.7797 52.4588 28.879C52.4091 28.9286 52.3843 29.0031 52.4092 29.0527C52.434 29.1272 52.5332 29.1768 52.6325 29.2016C52.707 29.2016 52.8062 29.2016 52.8807 29.2016C53.0048 29.2016 53.104 29.2016 53.2281 29.2016C53.2529 29.2016 53.2778 29.2016 53.3026 29.2016C53.377 29.1768 53.4018 29.0527 53.4018 28.9783C53.4018 28.9286 53.4018 28.9038 53.3522 28.879V28.8542Z" fill="#2D3962"/>
<path id="Vector_103" d="M53.7742 28.4572C54.4195 28.4572 54.9903 28.4075 55.5114 28.3579C55.6355 28.3579 57.3231 28.1842 57.4224 28.1842C58.1421 28.1097 58.564 28.0104 58.7873 27.9856C58.8866 27.9856 58.9362 27.8864 58.9114 27.7871C58.2662 25.2557 56.107 23.8411 53.5508 23.9404C51.0195 24.0397 49.3319 25.628 48.8604 28.1842C48.8604 28.3083 48.91 28.4075 49.0341 28.4323C49.3071 28.482 49.5552 28.5068 51.0443 28.5068C51.0443 28.5068 53.3027 28.4572 53.7742 28.4572Z" fill="#2D3962"/>
</g>
<path id="Vector_104" d="M54.3192 35.406H54.2943C53.2024 35.406 52.7557 35.2323 52.7557 35.2075C52.706 35.2075 52.6812 35.1331 52.706 35.0834C52.706 35.0338 52.7805 35.009 52.8301 35.0338C52.8301 35.0338 53.252 35.2075 54.2943 35.2075C54.89 35.2075 55.1878 35.1827 55.7338 35.0586C55.7834 35.0586 55.833 35.0586 55.8578 35.1331C55.8578 35.1827 55.8578 35.2323 55.7834 35.2571C55.2374 35.3564 54.9396 35.406 54.344 35.406H54.3192Z" fill="#2D3962"/>
</g>
</g>
</g>
</g>
</g>
</g>
<path id="Vector_105" d="M61.4421 42.6776H46.3779V44.5637H61.4421V42.6776Z" fill="#B7CAF7"/>
<g id="Group_38">
<path id="Vector_106" d="M50.448 60.6206H35.3838V62.5067H50.448V60.6206Z" fill="#FFB0D7"/>
<path id="Vector_107" d="M50.448 65.2615H35.3838V67.1476H50.448V65.2615Z" fill="#76ADA0"/>
<path id="Vector_108" d="M50.448 69.9023H35.3838V71.7885H50.448V69.9023Z" fill="#B7CAF7"/>
<g id="Group_39">
<path id="Vector_109" d="M44.2436 49.3038H35.5327C35.2845 49.3038 35.0859 49.1053 35.0859 48.8571C35.0859 48.6089 35.2845 48.4104 35.5327 48.4104H44.2436C44.4917 48.4104 44.6903 48.6089 44.6903 48.8571C44.6903 49.1053 44.4917 49.3038 44.2436 49.3038Z" fill="#2D3962"/>
<path id="Vector_110" d="M44.2436 52.555H35.5327C35.2845 52.555 35.0859 52.3564 35.0859 52.1083C35.0859 51.8601 35.2845 51.6616 35.5327 51.6616H44.2436C44.4917 51.6616 44.6903 51.8601 44.6903 52.1083C44.6903 52.3564 44.4917 52.555 44.2436 52.555Z" fill="#2D3962"/>
<path id="Vector_111" d="M44.2436 55.7812H35.5327C35.2845 55.7812 35.0859 55.5826 35.0859 55.3345C35.0859 55.0863 35.2845 54.8878 35.5327 54.8878H44.2436C44.4917 54.8878 44.6903 55.0863 44.6903 55.3345C44.6903 55.5826 44.4917 55.7812 44.2436 55.7812Z" fill="#2D3962"/>
<path id="Vector_112" d="M72.4612 49.3038H46.8744C46.6263 49.3038 46.4277 49.1053 46.4277 48.8571C46.4277 48.6089 46.6263 48.4104 46.8744 48.4104H72.4612C72.7094 48.4104 72.9079 48.6089 72.9079 48.8571C72.9079 49.1053 72.7094 49.3038 72.4612 49.3038Z" fill="#2D3962"/>
<path id="Vector_113" d="M72.4612 52.555H46.8744C46.6263 52.555 46.4277 52.3564 46.4277 52.1083C46.4277 51.8601 46.6263 51.6616 46.8744 51.6616H72.4612C72.7094 51.6616 72.9079 51.8601 72.9079 52.1083C72.9079 52.3564 72.7094 52.555 72.4612 52.555Z" fill="#2D3962"/>
<path id="Vector_114" d="M72.4612 55.7812H46.8744C46.6263 55.7812 46.4277 55.5826 46.4277 55.3345C46.4277 55.0863 46.6263 54.8878 46.8744 54.8878H72.4612C72.7094 54.8878 72.9079 55.0863 72.9079 55.3345C72.9079 55.5826 72.7094 55.7812 72.4612 55.7812Z" fill="#2D3962"/>
</g>
<path id="Vector_115" d="M72.4116 61.8614H54.1459C53.8978 61.8614 53.6992 61.6629 53.6992 61.4147C53.6992 61.1666 53.8978 60.968 54.1459 60.968H72.4116C72.6597 60.968 72.8583 61.1666 72.8583 61.4147C72.8583 61.6629 72.6597 61.8614 72.4116 61.8614Z" fill="#2D3962"/>
<path id="Vector_116" d="M72.4116 65.2118H54.1459C53.8978 65.2118 53.6992 65.0133 53.6992 64.7651C53.6992 64.517 53.8978 64.3184 54.1459 64.3184H72.4116C72.6597 64.3184 72.8583 64.517 72.8583 64.7651C72.8583 65.0133 72.6597 65.2118 72.4116 65.2118Z" fill="#2D3962"/>
<path id="Vector_117" d="M72.4116 68.5374H54.1459C53.8978 68.5374 53.6992 68.3388 53.6992 68.0906C53.6992 67.8425 53.8978 67.6439 54.1459 67.6439H72.4116C72.6597 67.6439 72.8583 67.8425 72.8583 68.0906C72.8583 68.3388 72.6597 68.5374 72.4116 68.5374Z" fill="#2D3962"/>
<path id="Vector_118" d="M72.4108 71.8629H64.4692C64.221 71.8629 64.0225 71.6644 64.0225 71.4162C64.0225 71.168 64.221 70.9695 64.4692 70.9695H72.4108C72.6589 70.9695 72.8575 71.168 72.8575 71.4162C72.8575 71.6644 72.6589 71.8629 72.4108 71.8629Z" fill="#2D3962"/>
</g>
<path id="Vector_119" d="M57.868 76.1315H49.976C49.7278 76.1315 49.5293 75.933 49.5293 75.6848C49.5293 75.4366 49.7278 75.2381 49.976 75.2381H57.868C58.1161 75.2381 58.3147 75.4366 58.3147 75.6848C58.3147 75.933 58.1161 76.1315 57.868 76.1315Z" fill="#2D3962"/>
</g>
</g>
</svg>
