<svg xmlns="http://www.w3.org/2000/svg" width="20" height="21" viewBox="0 0 20 21" fill="none">
<path d="M19.8177 19.3304L15.7711 15.3137C18.7889 11.812 18.6175 6.52509 15.291 3.19503C13.5764 1.44418 11.2787 0.585915 9.0154 0.585915C6.75205 0.585915 4.45441 1.44418 2.70546 3.19503C-0.792444 6.69674 -0.792444 12.3269 2.70546 15.8286C4.42011 17.5452 6.71775 18.4378 9.0154 18.4378C11.073 18.4378 13.1649 17.7168 14.8109 16.2749L18.8575 20.3259C18.9604 20.4289 19.1319 20.4976 19.3033 20.4976C19.4748 20.4976 19.6463 20.4289 19.7834 20.2916C20.0578 20.0513 20.0578 19.605 19.8177 19.3304ZM3.66567 14.8331C2.22535 13.4255 1.4709 11.503 1.4709 9.51184C1.4709 7.52067 2.25965 5.59816 3.66567 4.15628C5.10598 2.7144 6.9921 1.95913 9.0154 1.95913C11.0387 1.95913 12.9248 2.74873 14.3651 4.15628C15.7711 5.59816 16.5599 7.48634 16.5599 9.51184C16.5599 11.5373 15.7711 13.4255 14.3651 14.8674C12.9248 16.2749 11.0044 17.0645 9.0154 17.0645C7.02639 17.0645 5.10598 16.2749 3.66567 14.8331Z" fill="#999999"/>
</svg>