<svg xmlns="http://www.w3.org/2000/svg" width="22" height="22" viewBox="0 0 22 22" fill="none">
<path fill-rule="evenodd" clip-rule="evenodd" d="M11 22.0002C17.0757 22.0002 22 17.0754 22 11.0002C22 4.92507 17.0757 0.000214054 11 0.000214585C4.92432 0.000215116 -1.4768e-06 4.92507 -9.45698e-07 11.0002C-4.14592e-07 17.0754 4.926 22.0002 11 22.0002ZM11.9666 4.54881L11.9666 11.0002C11.9666 11.3579 11.7732 11.6697 11.4838 11.8369L7.31489 14.246C6.85076 14.514 6.25868 14.3562 5.98973 13.893C5.72358 13.4308 5.87953 12.8378 6.34367 12.5698L10.0325 10.4399L10.0325 4.54857C10.0325 4.01444 10.4658 3.58117 10.999 3.58117C11.5323 3.58117 11.9656 4.01444 11.9656 4.54857L11.9666 4.54881ZM4.59369 4.59456C8.13214 1.05642 13.8679 1.05642 17.4054 4.59456C20.9438 8.13174 20.9438 13.8679 17.4054 17.4061C13.8679 20.9442 8.13118 20.9442 4.59369 17.4061C1.0562 13.8679 1.0562 8.1327 4.59369 4.59456Z" fill="#C2C2C2"/>
</svg>