<svg xmlns="http://www.w3.org/2000/svg" width="27" height="19" viewBox="0 0 27 19" fill="none">
<path fill-rule="evenodd" clip-rule="evenodd" d="M9.28564 12.882L4.48637 18.457C4.20635 18.7825 3.71471 18.8192 3.3883 18.5392L0.270724 15.8554C-0.0548711 15.5754 -0.0923145 15.083 0.188511 14.7574L7.94419 5.74735C8.22257 5.42338 8.71015 5.38513 9.03574 5.65944L14.5025 9.68379L18.1793 5.92643L16.115 4.08763C15.7943 3.80192 15.765 3.31027 16.0507 2.98956C16.159 2.86828 16.2965 2.78932 16.4422 2.75188L25.6045 0.29689C26.0196 0.186187 26.4453 0.432826 26.5568 0.847145C26.5821 0.943196 26.5894 1.03925 26.5788 1.13204L25.9984 11.2019C25.9748 11.63 25.6085 11.9589 25.1804 11.9353C24.998 11.9255 24.8328 11.8531 24.7066 11.7399L24.7058 11.7407L22.4153 9.70008L15.5794 16.6865C15.3051 16.9657 14.872 16.9934 14.5668 16.7687L9.28645 12.882H9.28564Z" fill="url(#paint0_linear_1570_2872)"/>
<defs>
<linearGradient id="paint0_linear_1570_2872" x1="22.5" y1="4.5" x2="7" y2="11.5" gradientUnits="userSpaceOnUse">
<stop stop-color="#FFD200"/>
<stop offset="1" stop-color="#FD6600"/>
</linearGradient>
</defs>
</svg>