<svg xmlns="http://www.w3.org/2000/svg" version="1.1" viewBox="-5.0 -10.0 110.0 135.0">
 <g>
  <path d="m90.625 15.625c0-3.4531-2.7969-6.25-6.25-6.25h-12.5c-1.7266 0-3.125-1.3984-3.125-3.125s1.3984-3.125 3.125-3.125h12.5c6.9023 0 12.5 5.5977 12.5 12.5v12.5c0 1.7266-1.3984 3.125-3.125 3.125s-3.125-1.3984-3.125-3.125z"/>
  <path d="m93.75 68.75c1.7266 0 3.125 1.3984 3.125 3.125v12.5c0 6.9023-5.5977 12.5-12.5 12.5h-12.5c-1.7266 0-3.125-1.3984-3.125-3.125s1.3984-3.125 3.125-3.125h12.5c3.4531 0 6.25-2.7969 6.25-6.25v-12.5c0-1.7266 1.3984-3.125 3.125-3.125z"/>
  <path d="m31.25 6.25c0 1.7266-1.3984 3.125-3.125 3.125h-12.5c-3.4531 0-6.25 2.7969-6.25 6.25v12.5c0 1.7266-1.3984 3.125-3.125 3.125s-3.125-1.3984-3.125-3.125v-12.5c0-6.9023 5.5977-12.5 12.5-12.5h12.5c1.7266 0 3.125 1.3984 3.125 3.125z"/>
  <path d="m31.25 93.75c0 1.7266-1.3984 3.125-3.125 3.125h-12.5c-6.9023 0-12.5-5.5977-12.5-12.5v-12.5c0-1.7266 1.3984-3.125 3.125-3.125s3.125 1.3984 3.125 3.125v12.5c0 3.4531 2.7969 6.25 6.25 6.25h12.5c1.7266 0 3.125 1.3984 3.125 3.125z"/>
  <path d="m50 40.625c-5.1758 0-9.375 4.1992-9.375 9.375s4.1992 9.375 9.375 9.375 9.375-4.1992 9.375-9.375-4.1992-9.375-9.375-9.375zm-3.125 9.375c0-1.7266 1.3984-3.125 3.125-3.125s3.125 1.3984 3.125 3.125-1.3984 3.125-3.125 3.125-3.125-1.3984-3.125-3.125z" fill-rule="evenodd"/>
  <path d="m50 31.25c8.9336 0 17.523 4.8711 23.867 13.918l2.1289 3.0391c0.75391 1.0742 0.75391 2.5117 0 3.5859l-2.1289 3.0391c-6.3438 9.0469-14.934 13.918-23.867 13.918s-17.523-4.8711-23.867-13.918l-2.1289-3.0391c-0.75391-1.0742-0.75391-2.5117 0-3.5859l2.1289-3.0391c6.3438-9.0469 14.934-13.918 23.867-13.918zm0 6.25c-6.4922 0-13.324 3.5195-18.75 11.258l-0.87109 1.2422 0.87109 1.2422c5.4258 7.7383 12.258 11.258 18.75 11.258s13.324-3.5195 18.75-11.258l0.87109-1.2422-0.87109-1.2422c-5.4258-7.7383-12.258-11.258-18.75-11.258z" fill-rule="evenodd"/>
 </g>
<text x="0.0" y="117.5" font-size="5.0" font-weight="bold" font-family="Arbeit Regular, Helvetica, Arial-Unicode, Arial, Sans-serif" fill="#000000">Created by Heztasia</text><text x="0.0" y="122.5" font-size="5.0" font-weight="bold" font-family="Arbeit Regular, Helvetica, Arial-Unicode, Arial, Sans-serif" fill="#000000">from Noun Project</text></svg>