<svg width="72" height="49" viewBox="0 0 72 49" fill="none" xmlns="http://www.w3.org/2000/svg">
<mask id="mask0_1570_2315" style="mask-type:luminance" maskUnits="userSpaceOnUse" x="0" y="0" width="72" height="49">
<path d="M71.19 0H0V48.1227H71.19V0Z" fill="white"/>
</mask>
<g mask="url(#mask0_1570_2315)">
<path fill-rule="evenodd" clip-rule="evenodd" d="M64.6621 40.9097V26.8504C64.664 24.9869 64.4357 23.1304 63.9825 21.3232C63.9798 21.3028 63.9739 21.2829 63.9649 21.2644C62.7286 16.4132 59.9182 12.1132 55.9771 9.04263C52.036 5.97204 47.1885 4.30565 42.1992 4.30628H23.5503C20.4918 4.30434 17.4907 5.14001 14.8705 6.72326C12.2501 8.30651 10.11 10.5773 8.68049 13.291C9.27448 14.7634 9.96743 16.1936 10.7545 17.5717C11.2195 18.3919 11.7152 19.192 12.2402 19.9706C11.6432 19.0935 11.0828 18.1888 10.561 17.2587C9.77104 15.8615 9.07561 14.4116 8.47948 12.9188C7.32082 15.1354 6.6602 17.5845 6.54498 20.0903C6.52734 20.3645 6.52734 20.6447 6.52734 20.9248V20.9249C6.52734 21.521 6.55086 22.1171 6.59202 22.7013C6.66241 23.6059 6.78413 24.5055 6.95658 25.3959C6.9562 25.3991 6.95653 25.4024 6.95754 25.4055C6.95856 25.4086 6.96024 25.4114 6.96246 25.4137C6.96285 25.4303 6.96687 25.4466 6.97422 25.4614V25.4734C6.97422 25.4734 6.9801 25.4734 6.97422 25.4793V25.4853H6.9801C6.98598 25.5449 6.99773 25.6045 7.00949 25.6641L7.0095 25.6641C7.01823 25.7216 7.03342 25.789 7.05029 25.8637C7.05616 25.8897 7.06223 25.9166 7.0683 25.9443C8.19502 31.0075 10.9871 35.5315 14.9856 38.7729C18.9842 42.0142 23.9514 43.7802 29.071 43.7805H64.6621V40.9191C64.5927 40.5984 64.5191 40.2788 64.4412 39.9604C64.5191 40.2756 64.5927 40.5921 64.6621 40.9097ZM21.7297 29.5228C21.7445 29.533 21.7592 29.5431 21.774 29.5533C22.3459 30.0557 22.9687 30.4953 23.632 30.8648C23.6379 30.8707 23.6379 30.8707 23.6438 30.8707C24.0604 31.1073 24.4926 31.3144 24.9374 31.4907C26.251 32.0272 27.6548 32.3004 29.071 32.2955H53.3315V26.668C53.3329 25.7703 53.2283 24.8757 53.0199 24.0033V23.9854C52.7185 22.7397 52.2116 21.5546 51.5205 20.4802C51.3179 20.1623 51.0992 19.8554 50.8654 19.5609C50.6887 19.4294 50.5106 19.2994 50.3313 19.1711C49.291 18.0522 48.0319 17.1608 46.6326 16.5527C45.2332 15.9446 43.724 15.633 42.1992 15.6372H23.5503C22.0843 15.6381 20.6787 16.2234 19.6426 17.2643C18.6065 18.3053 18.0248 19.7166 18.0254 21.1879C18.0235 22.8051 18.3714 24.4033 19.0451 25.8723C19.6822 27.2615 20.5962 28.5037 21.7297 29.5228Z" fill="#00B152"/>
<g style="mix-blend-mode:multiply" opacity="0.3">
<path d="M0.545608 26.0818C0.538435 26.0659 0.533598 26.0489 0.53125 26.0316C0.538427 26.0387 0.538431 26.0531 0.545608 26.0674V26.0818Z" fill="black"/>
</g>
<g style="mix-blend-mode:screen" opacity="0.4">
<path d="M70.1058 20.6989C70.0125 20.462 69.7398 19.7299 69.345 18.6175C69.0292 17.95 68.7134 17.1246 68.2398 16.2347C67.9957 15.7897 67.7374 15.316 67.4646 14.8208C67.1919 14.3256 66.8402 13.8447 66.5172 13.3208C66.1703 12.7792 65.7941 12.2569 65.3904 11.7561C65.1895 11.4906 64.9813 11.225 64.7732 10.9523C64.5435 10.6939 64.3139 10.4356 64.0842 10.17C63.8545 9.90445 63.6105 9.63889 63.3737 9.36616C63.1081 9.11496 62.8426 8.86376 62.577 8.60538C62.3114 8.34701 62.0459 8.08863 61.7732 7.83025C61.4861 7.58623 61.1918 7.34221 60.8975 7.09817C60.6033 6.85415 60.309 6.59578 60.0004 6.36612C59.6918 6.13645 59.3616 5.91394 59.0387 5.68428C58.4071 5.21059 57.7181 4.82302 57.0291 4.40675C55.6268 3.5886 54.1544 2.89687 52.6295 2.33973C51.8615 2.05982 51.0721 1.84452 50.3041 1.59332C49.5146 1.4139 48.7251 1.22728 47.9356 1.06939C47.1462 0.976083 46.3854 0.839725 45.5887 0.760776C44.7992 0.717712 43.9595 0.653123 43.2346 0.631591C40.091 0.581352 37.1628 0.502383 34.6508 0.40908C32.1388 0.330132 30.0502 0.200962 28.5861 0.136368C27.122 0.0717735 26.2822 2.1896e-07 26.2822 2.1896e-07H43.4428C49.5547 -0.000770516 55.4929 2.03321 60.3207 5.78113C65.1486 9.52908 68.5913 14.7776 70.1058 20.6989Z" fill="white"/>
</g>
</g>
</svg>
