<svg width="38" height="39" viewBox="0 0 38 39" fill="none" xmlns="http://www.w3.org/2000/svg">
<rect y="0.5" width="38" height="38" rx="19" fill="#1A1D1E"/>
<path d="M24.0812 16.1162C25.3266 16.1162 26.3362 15.1066 26.3362 13.8612C26.3362 12.6158 25.3266 11.6062 24.0812 11.6062C22.8358 11.6062 21.8262 12.6158 21.8262 13.8612C21.8262 15.1066 22.8358 16.1162 24.0812 16.1162Z" stroke="white" stroke-width="1.5" stroke-miterlimit="10" stroke-linecap="round" stroke-linejoin="round"/>
<path d="M13.9254 16.1162C15.1708 16.1162 16.1804 15.1066 16.1804 13.8612C16.1804 12.6158 15.1708 11.6062 13.9254 11.6062C12.68 11.6062 11.6704 12.6158 11.6704 13.8612C11.6704 15.1066 12.68 16.1162 13.9254 16.1162Z" stroke="white" stroke-width="1.5" stroke-miterlimit="10" stroke-linecap="round" stroke-linejoin="round"/>
<path d="M24.0812 27.3927C25.3266 27.3927 26.3362 26.3831 26.3362 25.1377C26.3362 23.8923 25.3266 22.8827 24.0812 22.8827C22.8358 22.8827 21.8262 23.8923 21.8262 25.1377C21.8262 26.3831 22.8358 27.3927 24.0812 27.3927Z" stroke="white" stroke-width="1.5" stroke-miterlimit="10" stroke-linecap="round" stroke-linejoin="round"/>
<path d="M13.9254 27.3927C15.1708 27.3927 16.1804 26.3831 16.1804 25.1377C16.1804 23.8923 15.1708 22.8827 13.9254 22.8827C12.68 22.8827 11.6704 23.8923 11.6704 25.1377C11.6704 26.3831 12.68 27.3927 13.9254 27.3927Z" stroke="white" stroke-width="1.5" stroke-miterlimit="10" stroke-linecap="round" stroke-linejoin="round"/>
</svg>
