<svg xmlns="http://www.w3.org/2000/svg" xmlns:xlink="http://www.w3.org/1999/xlink" viewBox="0 0 1080 1080" width="1080" height="1080" preserveAspectRatio="xMidYMid meet" style="width: 100%; height: 100%; transform: translate3d(0px, 0px, 0px); content-visibility: visible;" id="Confetti"><defs><clipPath id="__lottie_element_7539"><rect width="1080" height="1080" x="0" y="0"/></clipPath></defs><g clip-path="url(#__lottie_element_7539)"><g transform="matrix(1,0,0,1,542.555419921875,526.4978637695312)" opacity="1" style="display: block;"><g opacity="1" transform="matrix(1,0,0,1,0,0)"><path fill="rgb(0,147,253)" fill-opacity="1" d=" M-16,29.63599967956543 C-16,6.083000183105469 -16,-107.11100006103516 -16,-169.13299560546875"/><path stroke-linecap="round" stroke-linejoin="miter" fill-opacity="0" stroke-miterlimit="4" stroke="rgb(46,68,19)" stroke-opacity="1" stroke-width="18" d=" M-16,29.63599967956543 C-16,6.083000183105469 -16,-107.11100006103516 -16,-169.13299560546875"/></g></g><g transform="matrix(0.5877852439880371,0.80901700258255,-0.80901700258255,0.5877852439880371,612.64794921875,571.0775756835938)" opacity="1" style="display: block;"><g opacity="1" transform="matrix(1,0,0,1,0,0)"><path fill="rgb(0,147,253)" fill-opacity="1" d=" M-16,29.63599967956543 C-16,6.083000183105469 -16,-107.11100006103516 -16,-169.13299560546875"/><path stroke-linecap="round" stroke-linejoin="miter" fill-opacity="0" stroke-miterlimit="4" stroke="rgb(46,68,19)" stroke-opacity="1" stroke-width="18" d=" M-16,29.63599967956543 C-16,6.083000183105469 -16,-107.11100006103516 -16,-169.13299560546875"/></g></g><g transform="matrix(0,1,-1,0,625.3609619140625,639)" opacity="1" style="display: block;"><g opacity="1" transform="matrix(1,0,0,1,0,0)"><path fill="rgb(0,147,253)" fill-opacity="1" d=" M-16,29.63599967956543 C-16,6.083000183105469 -16,-107.11100006103516 -16,-169.13299560546875"/><path stroke-linecap="round" stroke-linejoin="miter" fill-opacity="0" stroke-miterlimit="4" stroke="rgb(46,68,19)" stroke-opacity="1" stroke-width="18" d=" M-16,29.63599967956543 C-16,6.083000183105469 -16,-107.11100006103516 -16,-169.13299560546875"/></g></g><g transform="matrix(-0.7547096014022827,0.6560590267181396,-0.6560590267181396,-0.7547096014022827,587.426513671875,699.4612426757812)" opacity="1" style="display: block;"><g opacity="1" transform="matrix(1,0,0,1,0,0)"><path fill="rgb(0,147,253)" fill-opacity="1" d=" M-16,29.63599967956543 C-16,6.083000183105469 -16,-107.11100006103516 -16,-169.13299560546875"/><path stroke-linecap="round" stroke-linejoin="miter" fill-opacity="0" stroke-miterlimit="4" stroke="rgb(46,68,19)" stroke-opacity="1" stroke-width="18" d=" M-16,29.63599967956543 C-16,6.083000183105469 -16,-107.11100006103516 -16,-169.13299560546875"/></g></g><g transform="matrix(-1,0,0,-1,512,725.3609619140625)" opacity="1" style="display: block;"><g opacity="1" transform="matrix(1,0,0,1,0,0)"><path fill="rgb(0,147,253)" fill-opacity="1" d=" M-16,29.63599967956543 C-16,6.083000183105469 -16,-107.11100006103516 -16,-169.13299560546875"/><path stroke-linecap="round" stroke-linejoin="miter" fill-opacity="0" stroke-miterlimit="4" stroke="rgb(46,68,19)" stroke-opacity="1" stroke-width="18" d=" M-16,29.63599967956543 C-16,6.083000183105469 -16,-107.11100006103516 -16,-169.13299560546875"/></g></g><g transform="matrix(-0.6427876353263855,-0.7660444378852844,0.7660444378852844,-0.6427876353263855,440.6008605957031,684.99169921875)" opacity="1" style="display: block;"><g opacity="1" transform="matrix(1,0,0,1,0,0)"><path fill="rgb(0,147,253)" fill-opacity="1" d=" M-16,29.63599967956543 C-16,6.083000183105469 -16,-107.11100006103516 -16,-169.13299560546875"/><path stroke-linecap="round" stroke-linejoin="miter" fill-opacity="0" stroke-miterlimit="4" stroke="rgb(46,68,19)" stroke-opacity="1" stroke-width="18" d=" M-16,29.63599967956543 C-16,6.083000183105469 -16,-107.11100006103516 -16,-169.13299560546875"/></g></g><g transform="matrix(0,-1,1,0,420.6390380859375,608)" opacity="1" style="display: block;"><g opacity="1" transform="matrix(1,0,0,1,0,0)"><path fill="rgb(0,147,253)" fill-opacity="1" d=" M-16,29.63599967956543 C-16,6.083000183105469 -16,-107.11100006103516 -16,-169.13299560546875"/><path stroke-linecap="round" stroke-linejoin="miter" fill-opacity="0" stroke-miterlimit="4" stroke="rgb(46,68,19)" stroke-opacity="1" stroke-width="18" d=" M-16,29.63599967956543 C-16,6.083000183105469 -16,-107.11100006103516 -16,-169.13299560546875"/></g></g><g transform="matrix(0.7193397879600525,-0.6946583986282349,0.6946583986282349,0.7193397879600525,456.0762634277344,541.3424072265625)" opacity="1" style="display: block;"><g opacity="1" transform="matrix(1,0,0,1,0,0)"><path fill="rgb(0,147,253)" fill-opacity="1" d=" M-16,29.63599967956543 C-16,6.083000183105469 -16,-107.11100006103516 -16,-169.13299560546875"/><path stroke-linecap="round" stroke-linejoin="miter" fill-opacity="0" stroke-miterlimit="4" stroke="rgb(46,68,19)" stroke-opacity="1" stroke-width="18" d=" M-16,29.63599967956543 C-16,6.083000183105469 -16,-107.11100006103516 -16,-169.13299560546875"/></g></g><g transform="matrix(1,0,0,1,540.216552734375,494.923828125)" opacity="1" style="display: none;"><g opacity="1" transform="matrix(1,0,0,1,0,0)"><path fill="rgb(0,147,253)" fill-opacity="1" d=" M-16,-203.14500427246094 C-16,-207.552001953125 -16,-210 -16,-210"/><path stroke-linecap="round" stroke-linejoin="miter" fill-opacity="0" stroke-miterlimit="4" stroke="rgb(246,197,0)" stroke-opacity="1" stroke-width="18" d=" M-16,-203.14500427246094 C-16,-207.552001953125 -16,-210 -16,-210"/></g></g><g transform="matrix(0.5877852439880371,0.80901700258255,-0.80901700258255,0.5877852439880371,629.1978759765625,560.485595703125)" opacity="1" style="display: none;"><g opacity="1" transform="matrix(1,0,0,1,0,0)"><path fill="rgb(0,147,253)" fill-opacity="1" d=" M-16,-203.14500427246094 C-16,-207.552001953125 -16,-210 -16,-210"/><path stroke-linecap="round" stroke-linejoin="miter" fill-opacity="0" stroke-miterlimit="4" stroke="rgb(246,197,0)" stroke-opacity="1" stroke-width="18" d=" M-16,-203.14500427246094 C-16,-207.552001953125 -16,-210 -16,-210"/></g></g><g transform="matrix(0,1,-1,0,649.8548583984375,639)" opacity="1" style="display: none;"><g opacity="1" transform="matrix(1,0,0,1,0,0)"><path fill="rgb(0,147,253)" fill-opacity="1" d=" M-16,-203.14500427246094 C-16,-207.552001953125 -16,-210 -16,-210"/><path stroke-linecap="round" stroke-linejoin="miter" fill-opacity="0" stroke-miterlimit="4" stroke="rgb(246,197,0)" stroke-opacity="1" stroke-width="18" d=" M-16,-203.14500427246094 C-16,-207.552001953125 -16,-210 -16,-210"/></g></g><g transform="matrix(-0.7547096014022827,0.6560590267181396,-0.6560590267181396,-0.7547096014022827,602.6524658203125,717.9971313476562)" opacity="1" style="display: none;"><g opacity="1" transform="matrix(1,0,0,1,0,0)"><path fill="rgb(0,147,253)" fill-opacity="1" d=" M-16,-203.14500427246094 C-16,-207.552001953125 -16,-210 -16,-210"/><path stroke-linecap="round" stroke-linejoin="miter" fill-opacity="0" stroke-miterlimit="4" stroke="rgb(246,197,0)" stroke-opacity="1" stroke-width="18" d=" M-16,-203.14500427246094 C-16,-207.552001953125 -16,-210 -16,-210"/></g></g><g transform="matrix(-1,0,0,-1,512,749.8548583984375)" opacity="1" style="display: none;"><g opacity="1" transform="matrix(1,0,0,1,0,0)"><path fill="rgb(0,147,253)" fill-opacity="1" d=" M-16,-203.14500427246094 C-16,-207.552001953125 -16,-210 -16,-210"/><path stroke-linecap="round" stroke-linejoin="miter" fill-opacity="0" stroke-miterlimit="4" stroke="rgb(246,197,0)" stroke-opacity="1" stroke-width="18" d=" M-16,-203.14500427246094 C-16,-207.552001953125 -16,-210 -16,-210"/></g></g><g transform="matrix(-0.6427876353263855,-0.7660444378852844,0.7660444378852844,-0.6427876353263855,422.7269592285156,702.8656616210938)" opacity="1" style="display: none;"><g opacity="1" transform="matrix(1,0,0,1,0,0)"><path fill="rgb(0,147,253)" fill-opacity="1" d=" M-16,-203.14500427246094 C-16,-207.552001953125 -16,-210 -16,-210"/><path stroke-linecap="round" stroke-linejoin="miter" fill-opacity="0" stroke-miterlimit="4" stroke="rgb(246,197,0)" stroke-opacity="1" stroke-width="18" d=" M-16,-203.14500427246094 C-16,-207.552001953125 -16,-210 -16,-210"/></g></g><g transform="matrix(0,-1,1,0,396.1451721191406,608)" opacity="1" style="display: none;"><g opacity="1" transform="matrix(1,0,0,1,0,0)"><path fill="rgb(0,147,253)" fill-opacity="1" d=" M-16,-203.14500427246094 C-16,-207.552001953125 -16,-210 -16,-210"/><path stroke-linecap="round" stroke-linejoin="miter" fill-opacity="0" stroke-miterlimit="4" stroke="rgb(246,197,0)" stroke-opacity="1" stroke-width="18" d=" M-16,-203.14500427246094 C-16,-207.552001953125 -16,-210 -16,-210"/></g></g><g transform="matrix(0.7193397879600525,-0.6946583986282349,0.6946583986282349,0.7193397879600525,437.54034423828125,522.8065185546875)" opacity="1" style="display: none;"><g opacity="1" transform="matrix(1,0,0,1,0,0)"><path fill="rgb(0,147,253)" fill-opacity="1" d=" M-16,-203.14500427246094 C-16,-207.552001953125 -16,-210 -16,-210"/><path stroke-linecap="round" stroke-linejoin="miter" fill-opacity="0" stroke-miterlimit="4" stroke="rgb(246,197,0)" stroke-opacity="1" stroke-width="18" d=" M-16,-203.14500427246094 C-16,-207.552001953125 -16,-210 -16,-210"/></g></g></g></svg>