<svg width="300" height="200" viewBox="0 0 300 200" fill="none" xmlns="http://www.w3.org/2000/svg">
<path d="M149.626 160.28H240.906L250.721 112.624H159.442L149.626 160.28Z" fill="url(#paint0_linear_1570_4064)"/>
<path d="M206.978 169.884H179.289C179.289 168.674 180.271 167.696 181.477 167.696H204.786C205.996 167.696 206.974 168.678 206.974 169.884H206.978Z" fill="url(#paint1_linear_1570_4064)"/>
<path d="M188.641 167.696H197.914L197.626 149.359H188.641V167.696Z" fill="url(#paint2_linear_1570_4064)"/>
<path d="M147.494 160.28H238.773L248.593 112.624H157.313L147.494 160.28Z" fill="url(#paint3_linear_1570_4064)"/>
<path d="M219.609 113.223C216.63 125.147 207.198 134.907 193.789 137.003C179.077 139.268 160.516 138.165 150.824 149.694L149.634 155.464H150.621C166.039 139.483 191.057 147.554 211.06 144.974C228.746 142.282 239.089 128.909 246.465 113.223H219.609Z" fill="url(#paint4_linear_1570_4064)"/>
<path d="M193.788 137.003C207.198 134.907 216.63 125.147 219.609 113.223H158.335L150.82 149.694C160.516 138.165 179.073 139.268 193.784 137.003H193.788Z" fill="url(#paint5_linear_1570_4064)"/>
<path d="M211.055 144.974C191.053 147.554 166.034 139.483 150.616 155.464H238.617L247.319 113.223H246.46C239.085 128.909 228.742 142.282 211.055 144.974Z" fill="url(#paint6_linear_1570_4064)"/>
<path d="M94.6538 169.715C94.6538 169.716 94.6547 169.717 94.6558 169.717H295.005C297.488 169.717 299.5 171.729 299.5 174.211C299.5 176.693 297.488 178.706 295.005 178.706H94.6538C93.332 178.706 92.2578 177.631 92.2578 176.31V172.109C92.2578 170.788 93.3309 169.714 94.6518 169.713C94.6529 169.713 94.6538 169.714 94.6538 169.715Z" fill="black"/>
<path d="M114.581 178.706L110.967 199.667H108.435L112.049 178.706H114.581Z" fill="url(#paint7_linear_1570_4064)"/>
<path d="M137.183 178.706L133.569 199.667H131.041L134.655 178.706H137.183Z" fill="url(#paint8_linear_1570_4064)"/>
<g style="mix-blend-mode:overlay" opacity="0.54">
<path d="M236.933 26.0485H154.426C152.333 26.0485 150.637 27.7452 150.637 29.8382V147.466C150.637 149.559 152.333 151.255 154.426 151.255H236.933C239.026 151.255 240.722 149.559 240.722 147.466V29.8382C240.722 27.7452 239.026 26.0485 236.933 26.0485Z" fill="white"/>
</g>
<path d="M174.045 151.255C173.917 124.332 172.44 96.6985 172.38 69.8154C165.875 81.2603 164.884 94.9095 164.042 108.048C163.119 122.452 162.193 136.852 161.271 151.255H174.045Z" fill="#FFC000"/>
<path d="M189.005 44.0584C188.745 42.6847 188.877 41.2391 189.388 39.9372C188.825 37.7968 189.504 35.5725 191.261 34.2228C193.018 32.877 195.594 32.7053 197.514 33.8035C197.271 33.492 196.692 33.5599 196.528 33.9193C199.156 33.5799 201.919 35.0694 203.081 37.4534C205.214 38.1842 206.679 40.2926 206.847 42.5409C207.014 44.7891 206.096 47.0134 204.726 48.8024C203.357 50.5915 201.564 52.0091 199.747 53.3389C199.319 53.6504 198.86 53.9738 198.333 53.9978C197.498 54.0377 196.832 53.3469 196.288 52.7119C193.86 49.8727 189.699 47.7202 189.001 44.0504L189.005 44.0584Z" fill="#FF6530"/>
<path d="M195.705 151.255L200.17 124.045L168.994 122.755L168.291 151.255H195.705Z" fill="#C2DAFF"/>
<path d="M190.975 149.29L191.873 151.47H221.983L213.797 124.26L183 124L184.394 147.117L190.975 149.29Z" fill="#C2DAFF"/>
<path d="M191.716 149.978C191.62 149.642 191.257 149.279 191.257 149.279C186.896 147.098 182.176 146.735 177.743 145.042" fill="#C2DAFF"/>
<path d="M191.716 149.978C191.62 149.642 191.257 149.279 191.257 149.279C186.896 147.098 182.176 146.735 177.743 145.042" stroke="white" stroke-width="0.399333" stroke-linecap="round" stroke-linejoin="round"/>
<path d="M190.969 149.059C188.282 148.859 185.594 148.66 182.907 148.46L190.969 149.059Z" fill="#C2DAFF"/>
<path d="M190.969 149.059C188.282 148.859 185.594 148.66 182.907 148.46" stroke="#242424" stroke-width="0.399333" stroke-linecap="round" stroke-linejoin="round"/>
<path d="M214.107 132.139C209.702 132.171 205.294 131.261 201.26 129.484L214.107 132.139Z" fill="#C2DAFF"/>
<path d="M214.107 132.139C209.702 132.171 205.294 131.261 201.26 129.484" stroke="#242424" stroke-width="0.399333" stroke-linecap="round" stroke-linejoin="round"/>
<path d="M183.594 125.211C183.793 129.659 183.989 134.104 184.189 138.553C185.363 139.044 186.597 139.499 187.771 139.99" fill="#C2DAFF"/>
<path d="M183.594 125.211C183.793 129.659 183.989 134.104 184.189 138.553C185.363 139.044 186.597 139.499 187.771 139.99" stroke="white" stroke-width="0.399333" stroke-linecap="round" stroke-linejoin="round"/>
<path d="M173.419 127.144C172.301 128.046 170.951 128.661 169.533 128.909L173.419 127.144Z" fill="#C2DAFF"/>
<path d="M173.419 127.144C172.301 128.046 170.951 128.661 169.533 128.909" stroke="#242424" stroke-width="0.399333" stroke-linecap="round" stroke-linejoin="round"/>
<path d="M204.047 46.1629C203.389 45.9592 202.306 46.2308 202.155 46.9016C202.127 45.6637 202.218 45.7675 202.191 44.5296C202.107 44.4497 202.035 44.3778 201.959 44.306C199.938 43.9506 198.069 42.6088 197.434 40.2847C197.163 39.6098 196.64 39.0827 195.961 38.7113C194.455 38.5675 192.922 38.5995 191.421 38.7672C190.374 40.1848 190.007 41.2511 189.468 43.112C188.238 47.3529 187.419 55.7229 189.32 56.2141C190.486 56.5176 192.674 56.258 192.674 56.258C192.734 59.0693 191.736 66.1495 190.25 71.5485C194.092 71.4127 198.293 69.5199 201.476 67.3675C201.18 61.9046 200.869 56.2301 201.743 50.8311C202.642 51.0507 203.117 50.9389 203.78 50.288C204.439 49.6411 205.217 48.6547 205.245 47.6763C205.265 46.9855 204.706 46.3625 204.047 46.1589V46.1629Z" fill="#FFCAB9"/>
<path d="M192.195 61.8966C192.527 59.5325 192.702 57.488 192.679 56.258C195.059 55.3755 196.053 54.9282 197.183 54.1136C196.117 57.0048 194.476 59.8041 192.195 61.8966Z" fill="#FFCAB9"/>
<path d="M204.426 47.7322C204.418 47.5845 204.319 47.4527 204.187 47.3808C204.059 47.3089 203.903 47.289 203.756 47.293C203.141 47.3129 202.57 47.7802 202.426 48.3792" stroke="black" stroke-width="0.399333" stroke-linecap="round" stroke-linejoin="round"/>
<path d="M195.481 51.3782C194.132 51.9692 192.658 52.2767 191.185 52.2727V51.1785C192.562 51.1785 194.112 51.2424 195.481 51.3782Z" fill="#222222"/>
<path d="M191.904 50.1362C191.656 49.7968 191.409 49.4574 191.161 49.1179C191.045 48.9582 190.921 48.7825 190.925 48.5868C190.929 48.2314 191.305 48.0238 191.596 47.8161C192.163 47.4128 192.539 46.7499 192.599 46.0551" stroke="black" stroke-width="0.399333" stroke-linecap="round" stroke-linejoin="round"/>
<path d="M196.963 46.055C196.668 45.7235 196.248 45.5079 195.805 45.464C195.366 45.42 194.907 45.5438 194.551 45.8114" stroke="black" stroke-width="0.399333" stroke-linecap="round" stroke-linejoin="round"/>
<path d="M194.867 46.2308C194.867 46.7219 195.266 47.1173 195.753 47.1173C196.24 47.1173 196.64 46.7179 196.64 46.2308C196.64 45.7436 196.24 45.3442 195.753 45.3442C195.266 45.3442 194.867 45.7436 194.867 46.2308Z" fill="black"/>
<path d="M191.88 45.6916C191.584 45.3602 191.165 45.1445 190.722 45.1006C190.282 45.0567 189.823 45.1805 189.468 45.448" stroke="black" stroke-width="0.399333" stroke-linecap="round" stroke-linejoin="round"/>
<path d="M189.787 45.8674C189.787 46.3585 190.186 46.7539 190.674 46.7539C191.161 46.7539 191.56 46.3545 191.56 45.8674C191.56 45.3802 191.161 44.9808 190.674 44.9808C190.186 44.9808 189.787 45.3802 189.787 45.8674Z" fill="black"/>
<path d="M198.233 44.5296C197.191 43.6071 195.645 43.2996 194.332 43.7509" stroke="black" stroke-width="0.399333" stroke-linecap="round" stroke-linejoin="round"/>
<path d="M192.315 43.5473C191.628 43.0321 190.637 42.9682 189.891 43.3875" stroke="black" stroke-width="0.399333" stroke-linecap="round" stroke-linejoin="round"/>
<path d="M222.073 77.1871C224.489 73.2816 222.117 68.3618 217.309 67.3155C212.561 66.2813 207.749 65.235 203.269 64.2407L203.069 62.8071C198.816 63.9571 194.248 64.2247 189.959 63.2543L189.496 64.8996C186.529 65.3868 184.161 65.7701 181.693 66.1295C176.905 66.8244 173.235 70.3465 172.756 74.7152C170.627 94.0509 165.228 119.688 168.99 122.595C183.837 124.784 199.192 125.195 214.147 123.765C220.524 121.441 213.675 102.629 215.852 92.1541C217.225 85.5291 219.302 81.6596 222.069 77.1831L222.073 77.1871Z" fill="white"/>
<path d="M167.588 121.178C168.874 109.154 170.16 97.1338 171.445 85.1098" stroke="black" stroke-width="0.399333" stroke-linecap="round" stroke-linejoin="round"/>
<path d="M186.269 64.6599C178.354 76.8156 176.737 108.471 177.009 138.273C173.77 138.169 170.348 138.393 167.109 138.285C164.653 117.052 165.38 95.9956 169.421 75.0945C170.052 71.836 172.289 69.1205 175.363 67.8786C178.909 66.441 182.547 65.1671 186.269 64.6639V64.6599Z" fill="#FFC000"/>
<path d="M205.461 63.7854C200.218 88.9793 198.66 114.988 200.853 140.661C207.078 140.374 213.615 140.35 219.845 140.062C218.855 128.166 217.864 116.098 218.435 104.174C218.882 94.8056 220.328 85.3973 223.387 76.592C224.749 72.6746 222.449 68.4297 218.443 67.3515C214.047 66.1694 209.546 64.9914 205.461 63.7894V63.7854Z" fill="#FFC000"/>
<path d="M203.951 94.9934L208.763 90.0097L205.828 88.2007C205.577 86.7471 204.515 85.3575 204.239 84.9462C203.524 83.8799 202.646 82.9255 201.627 82.1428C200.569 81.3282 199.487 80.6893 198.457 79.8107C197.295 78.8204 196.708 78.457 195.545 77.4666C195.074 77.6783 195.078 79.0121 195.486 79.655C195.761 80.0943 197.486 81.8633 199.072 82.9175C197.558 82.035 196.855 81.5518 195.342 80.6653C194.168 81.5957 192.195 85.046 190.817 87.1585C193.329 89.7222 197.103 91.1318 200.645 92.2619L203.951 94.9894V94.9934Z" fill="#FFCAB9"/>
<path d="M195.342 80.6733L186.868 76.2926C186.665 76.1888 186.417 76.2567 186.297 76.4523C186.181 76.648 186.233 76.8996 186.421 77.0314L194.2 82.4703L195.342 80.6733Z" fill="#FFCAB9"/>
<path d="M193.293 84.2633L184.819 79.8826C184.616 79.7788 184.368 79.8467 184.248 80.0423C184.133 80.238 184.184 80.4896 184.372 80.6214L192.151 86.0603L193.293 84.2633Z" fill="#FFCAB9"/>
<path d="M192.738 86.3518L185.714 81.7954C185.546 81.6876 185.322 81.7275 185.203 81.8872C185.083 82.047 185.107 82.2746 185.258 82.4024L191.588 87.8213L192.738 86.3518Z" fill="#FFCAB9"/>
<path d="M194.767 82.7258L184.484 77.5744C184.237 77.4506 183.941 77.5225 183.805 77.7382C183.67 77.9538 183.741 78.2373 183.969 78.3891L193.449 84.7025L194.763 82.7258H194.767Z" fill="#FFCAB9"/>
<path d="M223.027 71.1053C228.311 83.4087 232.775 95.4326 233.702 108.794C233.881 111.394 233.801 114.265 232.092 116.234C230.251 118.354 226.973 118.73 224.313 117.831C221.654 116.933 219.481 115.004 217.465 113.047C211.842 107.58 206.926 101.586 202.629 95.0213C204.414 92.6932 206.199 90.3691 207.984 88.041C211.423 90.2932 215.4 92.3937 218.838 94.646C219.098 86.6832 221.374 78.9042 223.023 71.1093L223.027 71.1053Z" fill="#FFC000"/>
<path d="M202.702 95.1012C207.597 103.04 213.923 110.555 221.287 116.286" stroke="#FFC000" stroke-width="0.399333" stroke-linecap="round" stroke-linejoin="round"/>
<path d="M226.877 104.098C225.08 100.352 222.357 97.0539 219.014 94.578C222.401 94.6978 225.292 96.407 227.448 99.0226" stroke="#FFC000" stroke-width="0.399333" stroke-linecap="round" stroke-linejoin="round"/>
<path d="M207.29 99.5617C209.27 97.9285 211.011 96.0077 212.445 93.8792" stroke="#FFC000" stroke-width="0.399333" stroke-linecap="round" stroke-linejoin="round"/>
<path d="M208.077 88.2965C211.671 90.3052 215.265 92.3138 218.859 94.3224C218.955 88.1687 219.05 82.015 219.146 75.8613" stroke="#FFC000" stroke-width="0.399333" stroke-linecap="round" stroke-linejoin="round"/>
<path d="M193.828 64.5602C193.561 67.9465 193.006 70.2706 192.738 73.657" stroke="black" stroke-width="0.399333" stroke-linecap="round" stroke-linejoin="round"/>
<path d="M158.595 31.0202C158.595 32.1623 157.669 33.0848 156.531 33.0848C155.393 33.0848 154.466 32.1583 154.466 31.0202C154.466 29.8821 155.393 28.9557 156.531 28.9557C157.669 28.9557 158.595 29.8821 158.595 31.0202Z" fill="#D50000" stroke="#F6EECA" stroke-width="0.399333" stroke-linecap="round" stroke-linejoin="round"/>
<path d="M128.933 160.46H93.356L111.47 105.46H147.046L128.933 160.46Z" fill="white"/>
<path d="M120.643 107.68H141.971" stroke="black" stroke-width="0.399333" stroke-linecap="round" stroke-linejoin="round"/>
<path d="M119.812 110.1H141.356" stroke="black" stroke-width="0.399333" stroke-linecap="round" stroke-linejoin="round"/>
<path d="M118.969 112.52H140.741" stroke="black" stroke-width="0.399333" stroke-linecap="round" stroke-linejoin="round"/>
<path d="M118.146 114.944H140.13" stroke="black" stroke-width="0.399333" stroke-linecap="round" stroke-linejoin="round"/>
<path d="M111.542 117.364H138.828" stroke="black" stroke-width="0.399333" stroke-linecap="round" stroke-linejoin="round"/>
<path d="M110.755 119.784H138.041" stroke="black" stroke-width="0.399333" stroke-linecap="round" stroke-linejoin="round"/>
<path d="M109.968 122.204H137.255" stroke="black" stroke-width="0.399333" stroke-linecap="round" stroke-linejoin="round"/>
<path d="M109.182 124.624H136.468" stroke="black" stroke-width="0.399333" stroke-linecap="round" stroke-linejoin="round"/>
<path d="M108.395 127.048H135.681" stroke="black" stroke-width="0.399333" stroke-linecap="round" stroke-linejoin="round"/>
<path d="M107.612 129.468H134.899" stroke="black" stroke-width="0.399333" stroke-linecap="round" stroke-linejoin="round"/>
<path d="M106.826 131.888H134.112" stroke="black" stroke-width="0.399333" stroke-linecap="round" stroke-linejoin="round"/>
<path d="M106.039 134.308H133.325" stroke="black" stroke-width="0.399333" stroke-linecap="round" stroke-linejoin="round"/>
<path d="M105.252 136.728H132.539" stroke="black" stroke-width="0.399333" stroke-linecap="round" stroke-linejoin="round"/>
<path d="M104.465 139.148H131.752" stroke="black" stroke-width="0.399333" stroke-linecap="round" stroke-linejoin="round"/>
<path d="M103.679 141.572H130.965" stroke="black" stroke-width="0.399333" stroke-linecap="round" stroke-linejoin="round"/>
<path d="M102.896 143.992H130.182" stroke="black" stroke-width="0.399333" stroke-linecap="round" stroke-linejoin="round"/>
<path d="M102.109 146.412H129.396" stroke="black" stroke-width="0.399333" stroke-linecap="round" stroke-linejoin="round"/>
<path d="M117.104 115.487H111.542L114.373 106.89H119.935L117.104 115.487Z" fill="url(#paint9_linear_1570_4064)"/>
<path d="M135.286 170.436C138.03 159.506 145.852 140.849 148.384 124.336C148.664 122.508 155.121 122.236 155.121 125.367C155.121 141.204 155.98 158.152 154.246 172.304C154.055 173.858 153.847 175.427 153.284 176.893C152.721 178.354 151.767 179.72 150.401 180.479C148.468 181.553 146.084 181.265 143.928 180.774C142.007 180.335 140.078 179.736 138.469 178.602C136.324 177.092 135.222 174.577 135.198 171.993" fill="#936D61"/>
<path d="M94.9053 64.0571C97.2494 72.0797 99.1303 85.7569 99.3898 94.8018C99.4218 95.876 98.5552 96.7665 97.481 96.7665C94.6537 96.7665 91.6308 96.9023 88.9233 96.8264C87.6294 103.827 86.2797 111.043 84.9819 118.047H67.0718C68.9926 110.695 70.7337 103.204 72.6545 95.856C74.715 87.9692 69.4957 79.3037 67.9583 71.329C74.0601 64.8997 86.3755 60.8585 94.9093 64.0611L94.9053 64.0571Z" fill="#936D61"/>
<path d="M90.9883 91.9226V102.189" stroke="#422622" stroke-width="0.399333" stroke-linecap="round" stroke-linejoin="round"/>
<path d="M91.9541 88.8677V99.1306" stroke="#422622" stroke-width="0.399333" stroke-linecap="round" stroke-linejoin="round"/>
<path d="M90.0298 87.1826V97.4494" stroke="#422622" stroke-width="0.399333" stroke-linecap="round" stroke-linejoin="round"/>
<path d="M101.57 67.2158C101.57 68.2741 100.68 69.2764 100.572 70.3067C100.464 71.3569 101.127 72.523 100.911 73.5373C100.692 74.5676 99.6135 75.3622 99.29 76.3526C98.9666 77.3549 99.3699 78.6288 98.9466 79.5832C98.5193 80.5416 97.2973 81.0927 96.7742 81.9952C96.2471 82.9017 96.3789 84.2394 95.7639 85.082C95.1489 85.9286 93.8351 86.2161 93.1363 86.9908C92.4375 87.7695 92.2897 89.1033 91.511 89.8021C90.7363 90.501 89.3945 90.509 88.548 91.1279C87.7054 91.7429 87.2821 93.0168 86.3756 93.5399C85.4731 94.063 84.1593 93.7915 83.2009 94.2188C82.2505 94.6421 81.5716 95.8001 80.5733 96.1276C79.5829 96.447 78.357 95.9119 77.3267 96.1276C76.3124 96.3432 75.4059 97.3336 74.3556 97.4414C73.3254 97.5492 72.2352 96.7665 71.177 96.7665C70.1187 96.7665 69.0285 97.5492 67.9983 97.4414C66.948 97.3336 66.0455 96.3392 65.0272 96.1276C63.9969 95.9079 62.767 96.447 61.7806 96.1276C60.7783 95.8041 60.1034 94.646 59.153 94.2188C58.1946 93.7915 56.8808 94.059 55.9783 93.5399C55.0718 93.0128 54.6485 91.7389 53.806 91.1279C52.9594 90.5129 51.6176 90.501 50.8429 89.8021C50.0642 89.1033 49.9164 87.7695 49.2176 86.9908C48.5188 86.2161 47.209 85.9286 46.59 85.082C45.975 84.2394 46.1068 82.9017 45.5797 81.9952C45.0566 81.0927 43.8346 80.5416 43.4073 79.5832C42.984 78.6328 43.3913 77.3549 43.0639 76.3526C42.7444 75.3622 41.6622 74.5676 41.4426 73.5373C41.227 72.523 41.8938 71.3569 41.782 70.3067C41.6742 69.2764 40.7837 68.2741 40.7837 67.2158C40.7837 66.1576 41.6742 65.1553 41.782 64.125C41.8898 63.0748 41.227 61.9087 41.4426 60.8944C41.6622 59.8641 42.7404 59.0694 43.0639 58.0791C43.3873 57.0768 42.984 55.8029 43.4073 54.8485C43.8346 53.8901 45.0566 53.339 45.5797 52.4365C46.1068 51.53 45.975 50.1923 46.59 49.3497C47.205 48.5031 48.5188 48.2156 49.2176 47.4409C49.9164 46.6622 50.0642 45.3284 50.8429 44.6295C51.6176 43.9307 52.9594 43.9227 53.806 43.3038C54.6485 42.6888 55.0718 41.4149 55.9783 40.8918C56.8808 40.3687 58.1946 40.6402 59.153 40.2129C60.1034 39.7896 60.7823 38.6316 61.7806 38.3041C62.771 37.9846 63.9969 38.5197 65.0272 38.3041C66.0415 38.0885 66.948 37.0981 67.9983 36.9903C69.0285 36.8825 70.1187 37.6652 71.177 37.6652C72.2352 37.6652 73.3254 36.8825 74.3556 36.9903C75.4059 37.0981 76.3084 38.0925 77.3267 38.3041C78.357 38.5237 79.5869 37.9846 80.5733 38.3041C81.5756 38.6276 82.2505 39.7856 83.2009 40.2129C84.1593 40.6402 85.4731 40.3727 86.3756 40.8918C87.2821 41.4189 87.7054 42.6928 88.548 43.3038C89.3945 43.9187 90.7363 43.9307 91.511 44.6295C92.2897 45.3284 92.4375 46.6622 93.1363 47.4409C93.8351 48.2156 95.1449 48.5031 95.7639 49.3497C96.3789 50.1923 96.2471 51.53 96.7742 52.4365C97.2973 53.339 98.5193 53.8901 98.9466 54.8485C99.3699 55.7989 98.9626 57.0768 99.29 58.0791C99.6095 59.0694 100.692 59.8641 100.911 60.8944C101.127 61.9087 100.46 63.0748 100.572 64.125C100.68 65.1553 101.57 66.1576 101.57 67.2158Z" fill="#52332D"/>
<path d="M100.636 68.278C100.636 69.3003 99.7773 70.2667 99.6735 71.2611C99.5696 72.2754 100.209 73.3975 100.001 74.3759C99.7892 75.3702 98.747 76.1369 98.4395 77.0913C98.128 78.0577 98.5194 79.2877 98.1081 80.2061C97.6967 81.1326 96.5147 81.6637 96.0116 82.5342C95.5044 83.4088 95.6322 84.6986 95.0372 85.5133C94.4422 86.3319 93.1763 86.6074 92.5014 87.3542C91.8265 88.1049 91.6828 89.3908 90.932 90.0657C90.1813 90.7405 88.8875 90.7485 88.0728 91.3435C87.2582 91.9346 86.8509 93.1645 85.9763 93.6717C85.1058 94.1748 83.8399 93.9152 82.9134 94.3266C81.995 94.7339 81.344 95.852 80.3777 96.1675C79.4233 96.479 78.2372 95.9558 77.2429 96.1675C76.2645 96.3751 75.39 97.3295 74.3797 97.4374C73.3853 97.5412 72.3351 96.7864 71.3128 96.7864C70.2905 96.7864 69.2402 97.5412 68.2459 97.4374C67.2316 97.3335 66.3611 96.3751 65.3827 96.1675C64.3883 95.9558 63.2023 96.475 62.2479 96.1675C61.2815 95.856 60.6306 94.7379 59.7122 94.3266C58.7857 93.9152 57.5198 94.1748 56.6493 93.6717C55.7747 93.1645 55.3674 91.9346 54.5528 91.3435C53.7341 90.7485 52.4403 90.7405 51.6935 90.0657C50.9428 89.3908 50.799 88.1049 50.1242 87.3542C49.4493 86.6035 48.1834 86.3279 47.5884 85.5133C46.9974 84.6986 47.1212 83.4128 46.614 82.5342C46.1109 81.6637 44.9288 81.1326 44.5175 80.2061C44.1102 79.2877 44.5016 78.0537 44.1861 77.0913C43.8746 76.1369 42.8323 75.3702 42.6247 74.3759C42.417 73.3975 43.06 72.2714 42.9521 71.2611C42.8483 70.2667 41.9897 69.3003 41.9897 68.278C41.9897 67.2557 42.8483 66.2894 42.9521 65.295C43.056 64.2807 42.417 63.1586 42.6247 62.1802C42.8363 61.1859 43.8786 60.4192 44.1861 59.4648C44.4976 58.4984 44.1062 57.2684 44.5175 56.35C44.9288 55.4235 46.1109 54.8924 46.614 54.0218C47.1212 53.1473 46.9934 51.8575 47.5884 51.0428C48.1834 50.2242 49.4493 49.9486 50.1242 49.2019C50.799 48.4511 50.9428 47.1653 51.6935 46.4904C52.4443 45.8155 53.7381 45.8076 54.5528 45.2126C55.3674 44.6215 55.7747 43.3916 56.6493 42.8844C57.5198 42.3813 58.7857 42.6408 59.7122 42.2295C60.6306 41.8222 61.2815 40.7041 62.2479 40.3886C63.2023 40.0771 64.3883 40.6003 65.3827 40.3886C66.3611 40.181 67.2356 39.2265 68.2459 39.1187C69.2402 39.0149 70.2905 39.7696 71.3128 39.7696C72.3351 39.7696 73.3853 39.0149 74.3797 39.1187C75.394 39.2226 76.2645 40.181 77.2429 40.3886C78.2372 40.6003 79.4233 40.0811 80.3777 40.3886C81.344 40.7001 81.995 41.8182 82.9134 42.2295C83.8399 42.6408 85.1058 42.3813 85.9763 42.8844C86.8509 43.3916 87.2582 44.6215 88.0728 45.2126C88.8914 45.8076 90.1853 45.8155 90.932 46.4904C91.6828 47.1653 91.8265 48.4511 92.5014 49.2019C93.1763 49.9526 94.4422 50.2282 95.0372 51.0428C95.6282 51.8575 95.5044 53.1433 96.0116 54.0218C96.5147 54.8924 97.6967 55.4235 98.1081 56.35C98.5154 57.2684 98.124 58.5024 98.4395 59.4648C98.751 60.4192 99.7932 61.1859 100.001 62.1802C100.209 63.1586 99.5656 64.2847 99.6735 65.295C99.7773 66.2894 100.636 67.2557 100.636 68.278Z" fill="#52332D"/>
<path d="M136.224 199.667H57.4439C60.8303 192.039 64.3404 183.909 67.7268 176.282C61.3734 166.714 54.996 157.106 50.0323 146.747C46.4623 139.292 44.4456 130.131 47.3408 122.388C51.8013 120.243 57.2602 118.219 61.7248 116.074C60.8223 112.983 60.5467 109.541 59.6442 106.45C70.9374 104.789 82.534 105.22 93.6714 107.724C93.923 110.312 93.34 113.742 93.5916 116.33C99.0624 117.939 104.553 119.325 110.036 120.806C114.441 121.992 117.603 125.83 117.991 130.374C118.602 137.495 118.175 144.742 116.885 151.739C116.17 155.604 115.156 159.486 115.435 163.407C115.954 170.687 120.786 176.857 125.562 182.376C130.338 187.894 134.843 192.499 136.22 199.667H136.224Z" fill="#00A150"/>
<path d="M104.426 120.954C100.94 121.952 100.341 126.836 101.93 131.361C103.519 135.885 106.758 140.126 109.897 144.187C116.761 153.068 127.264 166.055 135.722 176.729C140.007 182.14 146.456 184.432 150.437 181.972C150.485 181.944 150.529 181.916 150.577 181.888C154.351 179.536 154.65 173.614 151.276 168.079C148.037 162.768 144.551 157.066 144.056 156.291C140.358 150.537 136.381 144.898 132.036 139.531C124.381 130.075 114.305 118.131 104.434 120.954H104.426Z" fill="#00A150"/>
<path d="M146.579 107.68C145.242 110.26 143.904 112.84 142.562 115.419C142.842 115.827 143.397 116.03 143.86 115.859C144.323 115.687 144.682 115.316 145.006 114.94C146.264 113.487 147.266 111.813 147.953 110.016" fill="#99321C"/>
<path d="M140.969 109.825C140.993 109.829 141.017 109.841 141.045 109.845C142.131 109.513 143.509 108.806 145.174 107.457C145.174 107.461 145.174 107.465 145.174 107.469L146.991 104.238C146.991 104.238 146.983 104.234 146.975 104.23C146.168 103.919 145.09 104.254 144.399 104.769C142.57 106.127 140.741 107.485 138.917 108.842C138.629 109.058 138.333 109.278 138.142 109.581C138.042 109.741 138.657 110.208 139.947 110.068C140.214 109.837 140.61 109.757 140.965 109.817L140.969 109.825Z" fill="#936D61"/>
<path d="M135.051 121.921C135.294 122.068 136.776 119.852 136.776 119.852L135.786 119.281C135.786 119.281 134.803 121.769 135.051 121.917V121.921Z" fill="url(#paint10_linear_1570_4064)"/>
<path d="M146.04 99.6896L135.785 119.281L136.776 119.852L147.018 100.277C147.31 99.7216 146.332 99.1306 146.04 99.6856V99.6896Z" fill="url(#paint11_linear_1570_4064)"/>
<path d="M155.649 119.069C155.505 116.11 155.337 115.375 155.089 112.42C154.998 111.334 154.534 110.072 153.46 109.889C153.46 109.29 153.181 108.699 152.725 108.311C152.27 107.924 151.603 107.892 151.012 107.984C151.092 107.401 150.861 106.786 150.425 106.398C149.986 106.007 149.195 105.959 148.624 106.107C148.421 105.272 147.79 104.557 146.991 104.242L145.174 107.473C145.889 110.056 145.701 112.916 146.32 115.687C144.994 114.944 144.048 111.833 142.167 110.428C141.824 110.172 141.456 109.936 141.041 109.845C140.634 109.968 140.27 110.04 139.947 110.076C139.879 110.132 139.819 110.2 139.771 110.276C139.519 110.675 142.475 115.292 142.922 116.789C143.369 118.287 143.772 119.836 144.671 121.114C145.569 122.392 150.034 125.654 151.18 126.153C152.326 126.653 154.155 127.092 155.121 126.293C155.121 126.293 155.88 123.781 155.649 119.069Z" fill="#936D61"/>
<path d="M140.969 109.825C140.614 109.765 140.218 109.845 139.951 110.076C140.274 110.04 140.638 109.968 141.045 109.845C141.021 109.841 140.997 109.829 140.969 109.825Z" fill="#936D61"/>
<path d="M86.1081 177.344H51.0227C45.0367 177.344 39.6098 172.492 38.8949 166.506L37.5053 154.826C36.7905 148.84 41.0673 143.988 47.0533 143.988H82.1388C88.1248 143.988 93.5517 148.84 94.2665 154.826L95.6562 166.506C96.371 172.492 92.0941 177.344 86.1081 177.344Z" fill="black"/>
<path d="M66.485 199.667H63.2983C62.5595 195.713 62.5276 191.512 62.3159 187.683C61.7489 177.328 61.1778 166.969 60.6108 156.615C60.499 154.566 63.6856 154.814 63.7975 156.838C64.3246 166.406 64.8477 175.974 65.3748 185.546C65.6144 189.899 65.4467 195.046 66.485 199.667Z" fill="url(#paint12_linear_1570_4064)"/>
<g style="mix-blend-mode:overlay" opacity="0.54">
<path d="M273.568 19.9268H228.527C226.434 19.9268 224.737 21.6235 224.737 23.7164V88.5722C224.737 90.6651 226.434 92.3618 228.527 92.3618H273.568C275.661 92.3618 277.357 90.6651 277.357 88.5722V23.7164C277.357 21.6235 275.661 19.9268 273.568 19.9268Z" fill="white"/>
</g>
<path d="M251.049 54.2894C257.191 54.2894 262.17 49.3102 262.17 43.168C262.17 37.0258 257.191 32.0465 251.049 32.0465C244.906 32.0465 239.927 37.0258 239.927 43.168C239.927 49.3102 244.906 54.2894 251.049 54.2894Z" fill="#FFCA64"/>
<mask id="mask0_1570_4064" style="mask-type:luminance" maskUnits="userSpaceOnUse" x="239" y="32" width="24" height="23">
<path d="M251.049 54.2894C257.191 54.2894 262.17 49.3102 262.17 43.168C262.17 37.0258 257.191 32.0465 251.049 32.0465C244.906 32.0465 239.927 37.0258 239.927 43.168C239.927 49.3102 244.906 54.2894 251.049 54.2894Z" fill="white"/>
</mask>
<g mask="url(#mask0_1570_4064)">
<path d="M247.635 40.4685C247.491 39.7138 247.567 38.9151 247.846 38.1963C247.535 37.0143 247.91 35.7884 248.877 35.0496C249.847 34.3068 251.265 34.211 252.323 34.818C252.187 34.6463 251.872 34.6822 251.78 34.8819C253.229 34.6942 254.751 35.5168 255.39 36.8266C256.564 37.23 257.374 38.392 257.466 39.6299C257.558 40.8679 257.051 42.0938 256.3 43.0802C255.545 44.0665 254.559 44.8452 253.557 45.58C253.321 45.7517 253.07 45.9314 252.778 45.9434C252.319 45.9674 251.951 45.584 251.652 45.2366C250.314 43.6712 248.022 42.4852 247.635 40.4646V40.4685Z" fill="#FF6530"/>
<path d="M255.925 41.6266C255.562 41.5148 254.967 41.6625 254.883 42.0339C254.867 41.351 254.919 41.4069 254.903 40.7281C254.859 40.6842 254.815 40.6442 254.775 40.6043C253.661 40.4086 252.631 39.6698 252.283 38.388C252.135 38.0166 251.848 37.7251 251.473 37.5214C250.642 37.4416 249.799 37.4615 248.969 37.5534C248.39 38.3321 248.19 38.9231 247.895 39.9454C247.22 42.2815 246.764 46.8938 247.811 47.1653C248.454 47.3331 249.66 47.1893 249.66 47.1893C249.692 48.7387 249.14 52.6402 248.326 55.6152C250.442 55.5394 252.758 54.4971 254.511 53.3111C254.348 50.3001 254.176 47.1733 254.659 44.1983C255.154 44.3181 255.418 44.2582 255.781 43.8988C256.145 43.5434 256.572 43.0003 256.588 42.4612C256.6 42.0818 256.292 41.7384 255.925 41.6266Z" fill="#FFCAB9"/>
<path d="M249.392 50.2961C249.576 48.9943 249.672 47.8682 249.656 47.1893C250.965 46.7021 251.513 46.4585 252.14 46.0073C251.552 47.6006 250.646 49.142 249.392 50.2961Z" fill="#FFCAB9"/>
<path d="M256.132 42.4931C256.132 42.4132 256.073 42.3374 256.001 42.2974C255.929 42.2575 255.845 42.2455 255.765 42.2495C255.426 42.2615 255.11 42.5171 255.03 42.8485" stroke="black" stroke-width="0.399333" stroke-linecap="round" stroke-linejoin="round"/>
<path d="M249.236 43.8189C249.1 43.6312 248.964 43.4435 248.825 43.2598C248.761 43.1719 248.693 43.0761 248.697 42.9683C248.697 42.7726 248.909 42.6568 249.064 42.545C249.376 42.3214 249.583 41.958 249.615 41.5746" stroke="black" stroke-width="0.399333" stroke-linecap="round" stroke-linejoin="round"/>
<path d="M252.02 41.5666C251.856 41.3829 251.624 41.2671 251.381 41.2391C251.137 41.2152 250.886 41.283 250.69 41.4308" stroke="black" stroke-width="0.399333" stroke-linecap="round" stroke-linejoin="round"/>
<path d="M250.869 41.6664C250.869 41.938 251.089 42.1576 251.36 42.1576C251.632 42.1576 251.852 41.938 251.852 41.6664C251.852 41.3949 251.632 41.1752 251.36 41.1752C251.089 41.1752 250.869 41.3949 250.869 41.6664Z" fill="black"/>
<path d="M249.22 41.367C249.056 41.1834 248.825 41.0675 248.581 41.0396C248.337 41.0156 248.086 41.0835 247.89 41.2313" stroke="black" stroke-width="0.399333" stroke-linecap="round" stroke-linejoin="round"/>
<path d="M248.066 41.4629C248.066 41.7344 248.286 41.954 248.557 41.954C248.829 41.954 249.048 41.7344 249.048 41.4629C249.048 41.1913 248.829 40.9717 248.557 40.9717C248.286 40.9717 248.066 41.1913 248.066 41.4629Z" fill="black"/>
<path d="M252.723 40.7281C252.148 40.2209 251.297 40.0492 250.574 40.3008" stroke="black" stroke-width="0.399333" stroke-linecap="round" stroke-linejoin="round"/>
<path d="M249.46 40.185C249.08 39.9014 248.533 39.8655 248.122 40.0971" stroke="black" stroke-width="0.399333" stroke-linecap="round" stroke-linejoin="round"/>
<path d="M255.497 51.5899L255.39 50.7993C253.045 51.4342 250.53 51.5819 248.166 51.0468L247.91 51.9533C246.277 52.2209 244.971 52.4325 243.609 52.6322C243.446 52.6562 243.282 52.6881 243.122 52.724V57.8435H258.097V52.161C257.215 51.9693 256.344 51.7776 255.497 51.5899Z" fill="#F6EECA"/>
<path d="M243.119 52.5045V57.8435H243.682C244.341 55.3836 245.143 53.3311 246.126 51.8216C245.111 51.9574 244.109 52.201 243.119 52.5045Z" fill="#37474F"/>
<path d="M258.093 51.7377C257.622 51.6059 257.159 51.4702 256.703 51.3384C256.256 53.4948 255.853 55.6632 255.505 57.8395H258.097V51.7377H258.093Z" fill="#37474F"/>
<path d="M250.294 51.7657C250.147 53.6345 249.843 54.9124 249.691 56.7773" stroke="black" stroke-width="0.399333" stroke-linecap="round" stroke-linejoin="round"/>
<path d="M248.657 44.7294C249.388 44.945 250.215 44.7973 250.826 44.342" stroke="black" stroke-width="0.399333" stroke-linecap="round" stroke-linejoin="round"/>
</g>
<path d="M229.749 57.0887H272.345" stroke="#1F1F1F" stroke-width="0.399333" stroke-linecap="round" stroke-linejoin="round"/>
<path d="M229.749 59.341H272.345" stroke="#1F1F1F" stroke-width="0.399333" stroke-linecap="round" stroke-linejoin="round"/>
<path d="M229.749 61.5972H272.345" stroke="#1F1F1F" stroke-width="0.399333" stroke-linecap="round" stroke-linejoin="round"/>
<path d="M229.749 63.8494H272.345" stroke="#1F1F1F" stroke-width="0.399333" stroke-linecap="round" stroke-linejoin="round"/>
<path d="M229.749 66.1017H272.345" stroke="#1F1F1F" stroke-width="0.399333" stroke-linecap="round" stroke-linejoin="round"/>
<path d="M229.749 71.3808H272.345" stroke="#1F1F1F" stroke-width="0.399333" stroke-linecap="round" stroke-linejoin="round"/>
<path d="M229.749 73.633H272.345" stroke="#1F1F1F" stroke-width="0.399333" stroke-linecap="round" stroke-linejoin="round"/>
<path d="M229.749 75.8853H272.345" stroke="#1F1F1F" stroke-width="0.399333" stroke-linecap="round" stroke-linejoin="round"/>
<path d="M229.749 78.1415H272.345" stroke="#1F1F1F" stroke-width="0.399333" stroke-linecap="round" stroke-linejoin="round"/>
<path d="M229.749 80.3938H272.345" stroke="#1F1F1F" stroke-width="0.399333" stroke-linecap="round" stroke-linejoin="round"/>
<path d="M229.749 84.7905H272.345" stroke="#1F1F1F" stroke-width="0.399333" stroke-linecap="round" stroke-linejoin="round"/>
<path d="M229.749 87.0428H272.345" stroke="#1F1F1F" stroke-width="0.399333" stroke-linecap="round" stroke-linejoin="round"/>
<path d="M229.749 89.295H272.345" stroke="#1F1F1F" stroke-width="0.399333" stroke-linecap="round" stroke-linejoin="round"/>
<defs>
<linearGradient id="paint0_linear_1570_4064" x1="149.626" y1="136.452" x2="250.721" y2="136.452" gradientUnits="userSpaceOnUse">
<stop/>
<stop offset="0.93" stop-color="#14161E"/>
<stop offset="1" stop-color="#161820"/>
</linearGradient>
<linearGradient id="paint1_linear_1570_4064" x1="179.289" y1="168.79" x2="206.978" y2="168.79" gradientUnits="userSpaceOnUse">
<stop stop-color="#242836"/>
<stop offset="0.93" stop-color="#383E54"/>
<stop offset="1" stop-color="#3A4056"/>
</linearGradient>
<linearGradient id="paint2_linear_1570_4064" x1="193.277" y1="161.107" x2="193.277" y2="166.262" gradientUnits="userSpaceOnUse">
<stop stop-color="#242836"/>
<stop offset="0.93" stop-color="#383E54"/>
<stop offset="1" stop-color="#3A4056"/>
</linearGradient>
<linearGradient id="paint3_linear_1570_4064" x1="147.494" y1="136.452" x2="248.593" y2="136.452" gradientUnits="userSpaceOnUse">
<stop stop-color="#242836"/>
<stop offset="0.93" stop-color="#383E54"/>
<stop offset="1" stop-color="#3A4056"/>
</linearGradient>
<linearGradient id="paint4_linear_1570_4064" x1="202.626" y1="153.068" x2="197.878" y2="133.645" gradientUnits="userSpaceOnUse">
<stop stop-color="#008764"/>
<stop offset="1" stop-color="#00A87C"/>
</linearGradient>
<linearGradient id="paint5_linear_1570_4064" x1="189.056" y1="147.17" x2="183.541" y2="124.612" gradientUnits="userSpaceOnUse">
<stop stop-color="#008764"/>
<stop offset="1" stop-color="#00A87C"/>
</linearGradient>
<linearGradient id="paint6_linear_1570_4064" x1="150.616" y1="134.344" x2="247.323" y2="134.344" gradientUnits="userSpaceOnUse">
<stop stop-color="#008764"/>
<stop offset="1" stop-color="#00A87C"/>
</linearGradient>
<linearGradient id="paint7_linear_1570_4064" x1="111.51" y1="199.946" x2="111.51" y2="180.495" gradientUnits="userSpaceOnUse">
<stop stop-color="#242836"/>
<stop offset="0.93" stop-color="#383E54"/>
<stop offset="1" stop-color="#3A4056"/>
</linearGradient>
<linearGradient id="paint8_linear_1570_4064" x1="134.112" y1="199.946" x2="134.112" y2="180.495" gradientUnits="userSpaceOnUse">
<stop stop-color="#242836"/>
<stop offset="0.93" stop-color="#383E54"/>
<stop offset="1" stop-color="#3A4056"/>
</linearGradient>
<linearGradient id="paint9_linear_1570_4064" x1="111.542" y1="111.19" x2="119.935" y2="111.19" gradientUnits="userSpaceOnUse">
<stop stop-color="#242836"/>
<stop offset="1" stop-color="#3A4056"/>
</linearGradient>
<linearGradient id="paint10_linear_1570_4064" x1="135.011" y1="120.607" x2="136.776" y2="120.607" gradientUnits="userSpaceOnUse">
<stop stop-color="#242836"/>
<stop offset="1" stop-color="#3A4056"/>
</linearGradient>
<linearGradient id="paint11_linear_1570_4064" x1="135.785" y1="109.661" x2="147.074" y2="109.661" gradientUnits="userSpaceOnUse">
<stop stop-color="#242836"/>
<stop offset="1" stop-color="#3A4056"/>
</linearGradient>
<linearGradient id="paint12_linear_1570_4064" x1="63.5459" y1="184.827" x2="63.5459" y2="152.909" gradientUnits="userSpaceOnUse">
<stop stop-color="#242836"/>
<stop offset="0.93" stop-color="#383E54"/>
<stop offset="1" stop-color="#3A4056"/>
</linearGradient>
</defs>
</svg>
