<svg xmlns="http://www.w3.org/2000/svg" width="22" height="22" viewBox="0 0 22 22" fill="none">
<path d="M20.1668 15.345V4.28084C20.1668 3.18084 19.2685 2.36501 18.1777 2.45668H18.1227C16.1977 2.62168 13.2735 3.60251 11.6418 4.62918L11.486 4.73001C11.2202 4.89501 10.7802 4.89501 10.5143 4.73001L10.2852 4.59251C8.6535 3.57501 5.7385 2.60334 3.8135 2.44751C2.72266 2.35584 1.8335 3.18084 1.8335 4.27168V15.345C1.8335 16.225 2.5485 17.05 3.4285 17.16L3.69433 17.1967C5.6835 17.4625 8.75433 18.4708 10.5143 19.4333L10.551 19.4517C10.7985 19.5892 11.1927 19.5892 11.431 19.4517C13.191 18.48 16.271 17.4625 18.2693 17.1967L18.5718 17.16C19.4518 17.05 20.1668 16.225 20.1668 15.345Z" stroke="#E1E1E1" stroke-width="1.5" stroke-linecap="round" stroke-linejoin="round"/>
<path d="M11 5.0325V18.7825" stroke="#E1E1E1" stroke-width="1.5" stroke-linecap="round" stroke-linejoin="round"/>
<path d="M7.104 7.7825H5.0415" stroke="#E1E1E1" stroke-width="1.5" stroke-linecap="round" stroke-linejoin="round"/>
<path d="M7.7915 10.5325H5.0415" stroke="#E1E1E1" stroke-width="1.5" stroke-linecap="round" stroke-linejoin="round"/>
</svg>