<svg xmlns="http://www.w3.org/2000/svg" width="22" height="22" viewBox="0 0 22 22" fill="none">
<path d="M14.2816 11C14.2816 12.815 12.8149 14.2817 10.9999 14.2817C9.18493 14.2817 7.71826 12.815 7.71826 11C7.71826 9.18499 9.18493 7.71832 10.9999 7.71832C12.8149 7.71832 14.2816 9.18499 14.2816 11Z" stroke="#E1E1E1" stroke-width="1.5" stroke-linecap="round" stroke-linejoin="round"/>
<path d="M10.9999 18.5808C14.2357 18.5808 17.2515 16.6742 19.3507 13.3742C20.1757 12.0817 20.1757 9.90917 19.3507 8.61667C17.2515 5.31667 14.2357 3.41 10.9999 3.41C7.76402 3.41 4.74819 5.31667 2.64902 8.61667C1.82402 9.90917 1.82402 12.0817 2.64902 13.3742C4.74819 16.6742 7.76402 18.5808 10.9999 18.5808Z" stroke="#E1E1E1" stroke-width="1.5" stroke-linecap="round" stroke-linejoin="round"/>
</svg>