<svg xmlns="http://www.w3.org/2000/svg" width="22" height="22" viewBox="0 0 22 22" fill="none">
<path d="M11.9165 8.25H6.4165" stroke="#E1E1E1" stroke-width="1.5" stroke-linecap="round" stroke-linejoin="round"/>
<path d="M20.1665 10.0558V11.9442C20.1665 12.4484 19.7632 12.8608 19.2499 12.8792H17.4532C16.4632 12.8792 15.5557 12.155 15.4732 11.165C15.4182 10.5875 15.6382 10.0467 16.0232 9.67083C16.3624 9.32249 16.8299 9.12085 17.3432 9.12085H19.2499C19.7632 9.13918 20.1665 9.55164 20.1665 10.0558Z" stroke="#E1E1E1" stroke-width="1.5" stroke-linecap="round" stroke-linejoin="round"/>
<path d="M16.0235 9.67082C15.6385 10.0467 15.4185 10.5875 15.4735 11.165C15.556 12.155 16.4635 12.8791 17.4535 12.8791H19.2502V14.2083C19.2502 16.9583 17.4168 18.7917 14.6668 18.7917H6.41683C3.66683 18.7917 1.8335 16.9583 1.8335 14.2083V7.79166C1.8335 5.29833 3.33683 3.55666 5.67433 3.26333C5.91266 3.22666 6.16016 3.20833 6.41683 3.20833H14.6668C14.9052 3.20833 15.1343 3.21748 15.3543 3.25415C17.7193 3.52915 19.2502 5.27999 19.2502 7.79166V9.12084H17.3435C16.8301 9.12084 16.3626 9.32248 16.0235 9.67082Z" stroke="#E1E1E1" stroke-width="1.5" stroke-linecap="round" stroke-linejoin="round"/>
</svg>