<svg xmlns="http://www.w3.org/2000/svg" width="25" height="24" viewBox="0 0 25 24" fill="none">
<mask id="path-1-outside-1_2624_778" maskUnits="userSpaceOnUse" x="0" y="0" width="25" height="24" fill="black">
<rect fill="white" width="25" height="24"/>
<path d="M12.4917 14.2762C12.4155 14.0938 12.5009 13.886 12.6833 13.8099C12.8657 13.7337 13.0735 13.8191 13.1496 14.0015C13.3689 14.5278 13.7291 14.7333 13.9899 14.8141C14.3316 14.9179 14.7102 14.8718 14.9826 14.694C15.1557 14.5809 15.2688 14.3985 15.2896 14.2069C15.3012 14.0846 15.2781 13.9022 15.1026 13.7291C14.9618 13.5929 14.6663 13.5236 14.3547 13.4497C13.9022 13.3435 13.3897 13.2212 13.0134 12.8357C12.7018 12.5171 12.5771 12.0369 12.6856 11.5822C12.7964 11.1158 13.1312 10.758 13.5998 10.5987C13.6898 10.5687 13.7822 10.5456 13.8768 10.5272V9.89696C13.8768 9.70073 14.0361 9.53914 14.2346 9.53914C14.4332 9.53914 14.5924 9.69843 14.5924 9.89696V10.5133C14.8141 10.5456 15.0264 10.6126 15.2111 10.7165C15.5805 10.9196 15.8298 11.2405 15.9291 11.6422C15.9752 11.8338 15.8598 12.0277 15.6682 12.0739C15.4766 12.12 15.2827 12.0046 15.2365 11.813C15.1857 11.6076 15.0611 11.4483 14.8695 11.3421C14.5832 11.1851 14.1769 11.1597 13.8306 11.2774C13.5121 11.3859 13.4128 11.6214 13.3805 11.753C13.3297 11.9677 13.3851 12.1985 13.5259 12.3417C13.7568 12.5794 14.1446 12.6695 14.5186 12.7595C14.911 12.8518 15.3196 12.9488 15.6013 13.2235C15.8967 13.5121 16.0376 13.8884 16.0006 14.2808C15.9614 14.6848 15.7282 15.0657 15.375 15.2942C15.1442 15.4466 14.8741 15.5389 14.5924 15.5712V16.1761C14.5924 16.3723 14.4332 16.5339 14.2346 16.5339C14.0361 16.5339 13.8768 16.3746 13.8768 16.1761V15.5412C13.8768 15.5366 13.8768 15.5297 13.8768 15.5251C13.8445 15.5158 13.8122 15.5089 13.7799 15.4974C13.2027 15.3173 12.7456 14.8856 12.4917 14.2762ZM22.7645 19.1587L15.1234 22.469C14.3062 22.8222 13.4936 23 12.6648 23C12.0808 23 11.4898 22.9123 10.8873 22.7368L6.03484 21.3286V21.9519C6.03484 22.3975 5.6724 22.7599 5.22686 22.7599H1.80797C1.36243 22.7599 1 22.3975 1 21.9519V15.3935C1 14.948 1.36243 14.5855 1.80797 14.5855H5.22917C5.67471 14.5855 6.03715 14.948 6.03715 15.3935V15.7998L6.81049 15.6243C6.57272 14.911 6.45268 14.1677 6.45268 13.4082C6.45268 10.1763 8.73116 6.92823 12.1593 5.23379L11.1043 2.7914C10.8781 2.26737 11.0097 1.66023 11.4298 1.28164C11.7969 0.951522 12.3186 0.909969 12.7318 1.17545L12.9973 1.34397C13.1219 1.42476 13.2651 1.42246 13.3897 1.34397L13.6575 1.17314C14.0153 0.942288 14.4609 0.942288 14.8187 1.17314L15.0865 1.34397C15.2111 1.42246 15.3542 1.42246 15.4789 1.34397L15.7444 1.17545C16.1576 0.909969 16.6793 0.951522 17.0464 1.28164C17.4665 1.66254 17.5981 2.26967 17.3719 2.7937L16.3169 5.2361C19.7404 6.93053 22.0212 10.1763 22.0212 13.4082C22.0212 14.5555 21.7419 15.6751 21.2086 16.6909L21.6911 16.5731C22.9608 16.2638 23.6117 16.7417 23.7941 17.2934C24.0273 17.9906 23.5748 18.8101 22.7645 19.1587ZM12.8795 5.11375C13.2789 5.22686 13.7429 5.28688 14.2346 5.28688C14.724 5.28688 15.188 5.22686 15.5874 5.11375L16.7116 2.50976C16.8178 2.26275 16.7601 1.99035 16.5616 1.81028C16.4369 1.69717 16.2638 1.68332 16.123 1.77566L15.8552 1.94648C15.4974 2.17503 15.0541 2.17503 14.6963 1.94648L14.4308 1.77335C14.3062 1.69255 14.1631 1.69255 14.0407 1.77335L13.7729 1.94648C13.4128 2.17503 12.9673 2.17503 12.6118 1.94648L12.3463 1.77796C12.2031 1.68562 12.0323 1.69948 11.9077 1.81259C11.7114 1.99035 11.6514 2.26506 11.7576 2.50976L12.8795 5.11375ZM7.50535 15.4651L7.5192 15.4627C8.6042 15.2157 9.60839 15.2457 10.6795 15.5597L16.3815 17.2357C16.7209 17.3349 16.9725 17.4942 17.1526 17.6812L20.2367 16.9286C20.9362 15.8714 21.3056 14.6594 21.3056 13.4105C21.3056 10.391 19.1056 7.34145 15.8183 5.79014C15.3473 5.92865 14.8025 6.00021 14.2346 6.00021C13.6644 6.00021 13.1196 5.92634 12.6487 5.79014C9.36138 7.34145 7.16369 10.3887 7.16369 13.4082C7.16369 14.1146 7.27912 14.8048 7.50535 15.4651ZM5.32151 15.3935C5.32151 15.3427 5.27765 15.2988 5.22686 15.2988H1.80797C1.75719 15.2988 1.71333 15.3427 1.71333 15.3935V21.9519C1.71333 22.0027 1.75719 22.0466 1.80797 22.0466H5.22917C5.27996 22.0466 5.32382 22.0027 5.32382 21.9519V15.3935H5.32151ZM23.1177 17.5219C23.0115 17.2034 22.5291 17.1064 21.8596 17.2703L17.4873 18.3345C17.5173 18.5077 17.5081 18.6808 17.4688 18.8401C17.328 19.3918 16.804 19.8674 16.0283 19.8674C15.8875 19.8674 15.7375 19.8512 15.5805 19.8166L9.82308 18.57C9.63148 18.5284 9.50913 18.3391 9.55068 18.1452C9.59223 17.9536 9.78153 17.8313 9.97544 17.8728L15.7328 19.1194C16.3377 19.251 16.7001 18.974 16.7786 18.6623C16.8086 18.5423 16.7971 18.4061 16.7232 18.2791C16.7163 18.2699 16.7116 18.2607 16.707 18.2514C16.617 18.1175 16.4531 17.9975 16.1853 17.919L10.4833 16.243C9.52298 15.9614 8.6596 15.9337 7.68311 16.1576L7.383 16.2269C7.37146 16.2315 7.35761 16.2338 7.34606 16.2361L6.03945 16.5339V20.5876L11.0905 22.0535C12.3832 22.4298 13.609 22.3513 14.8441 21.818L22.4852 18.5077C22.9861 18.286 23.217 17.8197 23.1177 17.5219Z"/>
</mask>
<path d="M12.4917 14.2762C12.4155 14.0938 12.5009 13.886 12.6833 13.8099C12.8657 13.7337 13.0735 13.8191 13.1496 14.0015C13.3689 14.5278 13.7291 14.7333 13.9899 14.8141C14.3316 14.9179 14.7102 14.8718 14.9826 14.694C15.1557 14.5809 15.2688 14.3985 15.2896 14.2069C15.3012 14.0846 15.2781 13.9022 15.1026 13.7291C14.9618 13.5929 14.6663 13.5236 14.3547 13.4497C13.9022 13.3435 13.3897 13.2212 13.0134 12.8357C12.7018 12.5171 12.5771 12.0369 12.6856 11.5822C12.7964 11.1158 13.1312 10.758 13.5998 10.5987C13.6898 10.5687 13.7822 10.5456 13.8768 10.5272V9.89696C13.8768 9.70073 14.0361 9.53914 14.2346 9.53914C14.4332 9.53914 14.5924 9.69843 14.5924 9.89696V10.5133C14.8141 10.5456 15.0264 10.6126 15.2111 10.7165C15.5805 10.9196 15.8298 11.2405 15.9291 11.6422C15.9752 11.8338 15.8598 12.0277 15.6682 12.0739C15.4766 12.12 15.2827 12.0046 15.2365 11.813C15.1857 11.6076 15.0611 11.4483 14.8695 11.3421C14.5832 11.1851 14.1769 11.1597 13.8306 11.2774C13.5121 11.3859 13.4128 11.6214 13.3805 11.753C13.3297 11.9677 13.3851 12.1985 13.5259 12.3417C13.7568 12.5794 14.1446 12.6695 14.5186 12.7595C14.911 12.8518 15.3196 12.9488 15.6013 13.2235C15.8967 13.5121 16.0376 13.8884 16.0006 14.2808C15.9614 14.6848 15.7282 15.0657 15.375 15.2942C15.1442 15.4466 14.8741 15.5389 14.5924 15.5712V16.1761C14.5924 16.3723 14.4332 16.5339 14.2346 16.5339C14.0361 16.5339 13.8768 16.3746 13.8768 16.1761V15.5412C13.8768 15.5366 13.8768 15.5297 13.8768 15.5251C13.8445 15.5158 13.8122 15.5089 13.7799 15.4974C13.2027 15.3173 12.7456 14.8856 12.4917 14.2762ZM22.7645 19.1587L15.1234 22.469C14.3062 22.8222 13.4936 23 12.6648 23C12.0808 23 11.4898 22.9123 10.8873 22.7368L6.03484 21.3286V21.9519C6.03484 22.3975 5.6724 22.7599 5.22686 22.7599H1.80797C1.36243 22.7599 1 22.3975 1 21.9519V15.3935C1 14.948 1.36243 14.5855 1.80797 14.5855H5.22917C5.67471 14.5855 6.03715 14.948 6.03715 15.3935V15.7998L6.81049 15.6243C6.57272 14.911 6.45268 14.1677 6.45268 13.4082C6.45268 10.1763 8.73116 6.92823 12.1593 5.23379L11.1043 2.7914C10.8781 2.26737 11.0097 1.66023 11.4298 1.28164C11.7969 0.951522 12.3186 0.909969 12.7318 1.17545L12.9973 1.34397C13.1219 1.42476 13.2651 1.42246 13.3897 1.34397L13.6575 1.17314C14.0153 0.942288 14.4609 0.942288 14.8187 1.17314L15.0865 1.34397C15.2111 1.42246 15.3542 1.42246 15.4789 1.34397L15.7444 1.17545C16.1576 0.909969 16.6793 0.951522 17.0464 1.28164C17.4665 1.66254 17.5981 2.26967 17.3719 2.7937L16.3169 5.2361C19.7404 6.93053 22.0212 10.1763 22.0212 13.4082C22.0212 14.5555 21.7419 15.6751 21.2086 16.6909L21.6911 16.5731C22.9608 16.2638 23.6117 16.7417 23.7941 17.2934C24.0273 17.9906 23.5748 18.8101 22.7645 19.1587ZM12.8795 5.11375C13.2789 5.22686 13.7429 5.28688 14.2346 5.28688C14.724 5.28688 15.188 5.22686 15.5874 5.11375L16.7116 2.50976C16.8178 2.26275 16.7601 1.99035 16.5616 1.81028C16.4369 1.69717 16.2638 1.68332 16.123 1.77566L15.8552 1.94648C15.4974 2.17503 15.0541 2.17503 14.6963 1.94648L14.4308 1.77335C14.3062 1.69255 14.1631 1.69255 14.0407 1.77335L13.7729 1.94648C13.4128 2.17503 12.9673 2.17503 12.6118 1.94648L12.3463 1.77796C12.2031 1.68562 12.0323 1.69948 11.9077 1.81259C11.7114 1.99035 11.6514 2.26506 11.7576 2.50976L12.8795 5.11375ZM7.50535 15.4651L7.5192 15.4627C8.6042 15.2157 9.60839 15.2457 10.6795 15.5597L16.3815 17.2357C16.7209 17.3349 16.9725 17.4942 17.1526 17.6812L20.2367 16.9286C20.9362 15.8714 21.3056 14.6594 21.3056 13.4105C21.3056 10.391 19.1056 7.34145 15.8183 5.79014C15.3473 5.92865 14.8025 6.00021 14.2346 6.00021C13.6644 6.00021 13.1196 5.92634 12.6487 5.79014C9.36138 7.34145 7.16369 10.3887 7.16369 13.4082C7.16369 14.1146 7.27912 14.8048 7.50535 15.4651ZM5.32151 15.3935C5.32151 15.3427 5.27765 15.2988 5.22686 15.2988H1.80797C1.75719 15.2988 1.71333 15.3427 1.71333 15.3935V21.9519C1.71333 22.0027 1.75719 22.0466 1.80797 22.0466H5.22917C5.27996 22.0466 5.32382 22.0027 5.32382 21.9519V15.3935H5.32151ZM23.1177 17.5219C23.0115 17.2034 22.5291 17.1064 21.8596 17.2703L17.4873 18.3345C17.5173 18.5077 17.5081 18.6808 17.4688 18.8401C17.328 19.3918 16.804 19.8674 16.0283 19.8674C15.8875 19.8674 15.7375 19.8512 15.5805 19.8166L9.82308 18.57C9.63148 18.5284 9.50913 18.3391 9.55068 18.1452C9.59223 17.9536 9.78153 17.8313 9.97544 17.8728L15.7328 19.1194C16.3377 19.251 16.7001 18.974 16.7786 18.6623C16.8086 18.5423 16.7971 18.4061 16.7232 18.2791C16.7163 18.2699 16.7116 18.2607 16.707 18.2514C16.617 18.1175 16.4531 17.9975 16.1853 17.919L10.4833 16.243C9.52298 15.9614 8.6596 15.9337 7.68311 16.1576L7.383 16.2269C7.37146 16.2315 7.35761 16.2338 7.34606 16.2361L6.03945 16.5339V20.5876L11.0905 22.0535C12.3832 22.4298 13.609 22.3513 14.8441 21.818L22.4852 18.5077C22.9861 18.286 23.217 17.8197 23.1177 17.5219Z" fill="white"/>
<path d="M12.4917 14.2762C12.4155 14.0938 12.5009 13.886 12.6833 13.8099C12.8657 13.7337 13.0735 13.8191 13.1496 14.0015C13.3689 14.5278 13.7291 14.7333 13.9899 14.8141C14.3316 14.9179 14.7102 14.8718 14.9826 14.694C15.1557 14.5809 15.2688 14.3985 15.2896 14.2069C15.3012 14.0846 15.2781 13.9022 15.1026 13.7291C14.9618 13.5929 14.6663 13.5236 14.3547 13.4497C13.9022 13.3435 13.3897 13.2212 13.0134 12.8357C12.7018 12.5171 12.5771 12.0369 12.6856 11.5822C12.7964 11.1158 13.1312 10.758 13.5998 10.5987C13.6898 10.5687 13.7822 10.5456 13.8768 10.5272V9.89696C13.8768 9.70073 14.0361 9.53914 14.2346 9.53914C14.4332 9.53914 14.5924 9.69843 14.5924 9.89696V10.5133C14.8141 10.5456 15.0264 10.6126 15.2111 10.7165C15.5805 10.9196 15.8298 11.2405 15.9291 11.6422C15.9752 11.8338 15.8598 12.0277 15.6682 12.0739C15.4766 12.12 15.2827 12.0046 15.2365 11.813C15.1857 11.6076 15.0611 11.4483 14.8695 11.3421C14.5832 11.1851 14.1769 11.1597 13.8306 11.2774C13.5121 11.3859 13.4128 11.6214 13.3805 11.753C13.3297 11.9677 13.3851 12.1985 13.5259 12.3417C13.7568 12.5794 14.1446 12.6695 14.5186 12.7595C14.911 12.8518 15.3196 12.9488 15.6013 13.2235C15.8967 13.5121 16.0376 13.8884 16.0006 14.2808C15.9614 14.6848 15.7282 15.0657 15.375 15.2942C15.1442 15.4466 14.8741 15.5389 14.5924 15.5712V16.1761C14.5924 16.3723 14.4332 16.5339 14.2346 16.5339C14.0361 16.5339 13.8768 16.3746 13.8768 16.1761V15.5412C13.8768 15.5366 13.8768 15.5297 13.8768 15.5251C13.8445 15.5158 13.8122 15.5089 13.7799 15.4974C13.2027 15.3173 12.7456 14.8856 12.4917 14.2762ZM22.7645 19.1587L15.1234 22.469C14.3062 22.8222 13.4936 23 12.6648 23C12.0808 23 11.4898 22.9123 10.8873 22.7368L6.03484 21.3286V21.9519C6.03484 22.3975 5.6724 22.7599 5.22686 22.7599H1.80797C1.36243 22.7599 1 22.3975 1 21.9519V15.3935C1 14.948 1.36243 14.5855 1.80797 14.5855H5.22917C5.67471 14.5855 6.03715 14.948 6.03715 15.3935V15.7998L6.81049 15.6243C6.57272 14.911 6.45268 14.1677 6.45268 13.4082C6.45268 10.1763 8.73116 6.92823 12.1593 5.23379L11.1043 2.7914C10.8781 2.26737 11.0097 1.66023 11.4298 1.28164C11.7969 0.951522 12.3186 0.909969 12.7318 1.17545L12.9973 1.34397C13.1219 1.42476 13.2651 1.42246 13.3897 1.34397L13.6575 1.17314C14.0153 0.942288 14.4609 0.942288 14.8187 1.17314L15.0865 1.34397C15.2111 1.42246 15.3542 1.42246 15.4789 1.34397L15.7444 1.17545C16.1576 0.909969 16.6793 0.951522 17.0464 1.28164C17.4665 1.66254 17.5981 2.26967 17.3719 2.7937L16.3169 5.2361C19.7404 6.93053 22.0212 10.1763 22.0212 13.4082C22.0212 14.5555 21.7419 15.6751 21.2086 16.6909L21.6911 16.5731C22.9608 16.2638 23.6117 16.7417 23.7941 17.2934C24.0273 17.9906 23.5748 18.8101 22.7645 19.1587ZM12.8795 5.11375C13.2789 5.22686 13.7429 5.28688 14.2346 5.28688C14.724 5.28688 15.188 5.22686 15.5874 5.11375L16.7116 2.50976C16.8178 2.26275 16.7601 1.99035 16.5616 1.81028C16.4369 1.69717 16.2638 1.68332 16.123 1.77566L15.8552 1.94648C15.4974 2.17503 15.0541 2.17503 14.6963 1.94648L14.4308 1.77335C14.3062 1.69255 14.1631 1.69255 14.0407 1.77335L13.7729 1.94648C13.4128 2.17503 12.9673 2.17503 12.6118 1.94648L12.3463 1.77796C12.2031 1.68562 12.0323 1.69948 11.9077 1.81259C11.7114 1.99035 11.6514 2.26506 11.7576 2.50976L12.8795 5.11375ZM7.50535 15.4651L7.5192 15.4627C8.6042 15.2157 9.60839 15.2457 10.6795 15.5597L16.3815 17.2357C16.7209 17.3349 16.9725 17.4942 17.1526 17.6812L20.2367 16.9286C20.9362 15.8714 21.3056 14.6594 21.3056 13.4105C21.3056 10.391 19.1056 7.34145 15.8183 5.79014C15.3473 5.92865 14.8025 6.00021 14.2346 6.00021C13.6644 6.00021 13.1196 5.92634 12.6487 5.79014C9.36138 7.34145 7.16369 10.3887 7.16369 13.4082C7.16369 14.1146 7.27912 14.8048 7.50535 15.4651ZM5.32151 15.3935C5.32151 15.3427 5.27765 15.2988 5.22686 15.2988H1.80797C1.75719 15.2988 1.71333 15.3427 1.71333 15.3935V21.9519C1.71333 22.0027 1.75719 22.0466 1.80797 22.0466H5.22917C5.27996 22.0466 5.32382 22.0027 5.32382 21.9519V15.3935H5.32151ZM23.1177 17.5219C23.0115 17.2034 22.5291 17.1064 21.8596 17.2703L17.4873 18.3345C17.5173 18.5077 17.5081 18.6808 17.4688 18.8401C17.328 19.3918 16.804 19.8674 16.0283 19.8674C15.8875 19.8674 15.7375 19.8512 15.5805 19.8166L9.82308 18.57C9.63148 18.5284 9.50913 18.3391 9.55068 18.1452C9.59223 17.9536 9.78153 17.8313 9.97544 17.8728L15.7328 19.1194C16.3377 19.251 16.7001 18.974 16.7786 18.6623C16.8086 18.5423 16.7971 18.4061 16.7232 18.2791C16.7163 18.2699 16.7116 18.2607 16.707 18.2514C16.617 18.1175 16.4531 17.9975 16.1853 17.919L10.4833 16.243C9.52298 15.9614 8.6596 15.9337 7.68311 16.1576L7.383 16.2269C7.37146 16.2315 7.35761 16.2338 7.34606 16.2361L6.03945 16.5339V20.5876L11.0905 22.0535C12.3832 22.4298 13.609 22.3513 14.8441 21.818L22.4852 18.5077C22.9861 18.286 23.217 17.8197 23.1177 17.5219Z" stroke="white" stroke-width="0.4" mask="url(#path-1-outside-1_2624_778)"/>
</svg>