<svg xmlns="http://www.w3.org/2000/svg" width="24" height="24" viewBox="0 0 24 24" fill="none">
<path d="M15.9074 6.76498L12.1574 10.5188L8.4036 6.76498L7.07611 8.09247L10.83 11.8425L7.07611 15.5963L8.4036 16.9238L12.1574 13.17L15.9074 16.9238L17.2349 15.5963L13.4811 11.8425L17.2349 8.09247L15.9074 6.76498Z" fill="#222222"/>
<path d="M17.13 0H6.87C3.08256 0 0 3.08256 0 6.87V17.13C0 20.9174 3.08256 24 6.87 24H17.13C20.9174 24 24 20.9174 24 17.13V6.87C24 3.08256 20.9174 0 17.13 0ZM22.1249 17.13C22.1249 19.8826 19.8824 22.1249 17.13 22.1249H6.87C4.11744 22.1249 1.87512 19.8824 1.87512 17.13V6.87C1.87512 4.11384 4.11763 1.87512 6.87 1.87512H17.13C19.8826 1.87512 22.1249 4.11763 22.1249 6.87V17.13Z" fill="#222222"/>
</svg>