<svg width="45" height="45" viewBox="0 0 45 45" fill="none" xmlns="http://www.w3.org/2000/svg">
<g id="Group 1437253729">
<g id="Group 1437253723">
<circle id="Ellipse 12" cx="22.036" cy="22.036" r="21.6354" transform="matrix(-1 0 0 1 44.072 0)" stroke="#656565" stroke-width="0.801309"/>
</g>
<path id="icon" d="M19.2095 13.7447C18.6994 13.2346 17.8723 13.2346 17.3621 13.7447L16.9488 14.1581C16.4391 14.6678 16.4386 15.4941 16.9478 16.0044L22.4455 21.5141C22.9542 22.024 22.9542 22.8495 22.4454 23.3594L16.9478 28.8691C16.4386 29.3794 16.4391 30.2057 16.9488 30.7155L17.3621 31.1288C17.8723 31.6389 18.6994 31.6389 19.2095 31.1288L26.9778 23.3604C27.488 22.8503 27.488 22.0232 26.9778 21.5131L19.2095 13.7447Z" fill="#1B1B1B"/>
</g>
</svg>
