<svg xmlns="http://www.w3.org/2000/svg" width="24" height="24" viewBox="0 0 24 24" fill="none">
<path d="M11.9041 4.95737C15.7694 4.95737 18.9029 8.09084 18.9029 11.9562C18.9029 15.8215 15.7694 18.955 11.9041 18.955C8.03874 18.955 4.90527 15.8215 4.90527 11.9562C4.90527 8.09084 8.03874 4.95737 11.9041 4.95737Z" stroke="black" stroke-width="1.61511" stroke-linecap="round" stroke-linejoin="round"/>
<path d="M19.592 4.26824L19.452 4.40821M19.452 19.5041L19.592 19.644L19.452 19.5041ZM4.21619 4.26824L4.35616 4.40821L4.21619 4.26824ZM11.9041 22.6374V22.7235V22.6374ZM11.9041 1.18877V1.27491V1.18877ZM1.22286 11.9561H1.13672H1.22286ZM22.6715 11.9561H22.5853H22.6715ZM4.35616 19.5041L4.21619 19.644L4.35616 19.5041Z" stroke="black" stroke-width="2.15347" stroke-linecap="round" stroke-linejoin="round"/>
</svg>