<svg width="50" height="50" viewBox="0 0 50 50" fill="none" xmlns="http://www.w3.org/2000/svg">
<rect width="50" height="50" rx="25" fill="#E5E5E5"/>
<path d="M25 19.9035V22.956" stroke="#0C0C0C" stroke-width="1.5" stroke-miterlimit="10" stroke-linecap="round"/>
<path d="M25.0175 15.8327C21.6442 15.8327 18.9125 18.5644 18.9125 21.9377V23.8627C18.9125 24.486 18.6558 25.421 18.335 25.9527L17.1708 27.896C16.4558 29.0969 16.9508 30.4352 18.2708 30.8752C22.6525 32.3327 27.3917 32.3327 31.7733 30.8752C33.0108 30.4627 33.5425 29.0144 32.8733 27.896L31.7092 25.9527C31.3883 25.421 31.1317 24.4769 31.1317 23.8627V21.9377C31.1225 18.5827 28.3725 15.8327 25.0175 15.8327Z" stroke="#0C0C0C" stroke-width="1.5" stroke-miterlimit="10" stroke-linecap="round"/>
<path d="M28.0562 31.251C28.0562 32.9285 26.6812 34.3035 25.0037 34.3035C24.1695 34.3035 23.3995 33.9552 22.8495 33.4052C22.2995 32.8552 21.9512 32.0852 21.9512 31.251" stroke="#0C0C0C" stroke-width="1.5" stroke-miterlimit="10"/>
<circle cx="30" cy="17" r="4" transform="rotate(180 30 17)" fill="#EA2D2D"/>
</svg>
