<svg width="33" height="33" viewBox="0 0 33 33" fill="none" xmlns="http://www.w3.org/2000/svg">
<g id="Group 1437253760">
<circle id="Ellipse 3226" cx="16.5" cy="16.5" r="16.5" fill="#00B152"/>
<g id="Group">
<path id="Vector" d="M20.2446 11.4831L16.6509 15.0805L13.0534 11.4831L11.7812 12.7553L15.3787 16.349L11.7812 19.9464L13.0534 21.2186L16.6509 17.6212L20.2446 21.2186L21.5168 19.9464L17.9194 16.349L21.5168 12.7553L20.2446 11.4831Z" fill="white"/>
<path id="Vector_2" d="M21.4163 5H11.5838C7.95412 5 5 7.95412 5 11.5838V21.4163C5 25.0459 7.95412 28 11.5838 28H21.4163C25.0459 28 28 25.0459 28 21.4163V11.5838C28 7.95412 25.0459 5 21.4163 5ZM26.203 21.4163C26.203 24.0541 24.0539 26.203 21.4163 26.203H11.5838C8.94588 26.203 6.79699 24.0539 6.79699 21.4163V11.5838C6.79699 8.94243 8.94606 6.79699 11.5838 6.79699H21.4163C24.0541 6.79699 26.203 8.94606 26.203 11.5838V21.4163Z" fill="white"/>
</g>
</g>
</svg>
