<svg width="22" height="15" viewBox="0 0 22 15" fill="none" xmlns="http://www.w3.org/2000/svg">
<path fill-rule="evenodd" clip-rule="evenodd" d="M0 3.1407C0 1.48567 1.3414 0.144272 2.99643 0.144272H11.715C13.37 0.144272 14.7114 1.48567 14.7114 3.1407V11.8593C14.7114 13.5143 13.37 14.8557 11.715 14.8557H2.99643C1.3414 14.8557 0 13.5143 0 11.8593V3.1407ZM2.99643 1.77888C2.24451 1.77888 1.63461 2.38878 1.63461 3.1407V11.8593C1.63461 12.6112 2.24451 13.2211 2.99643 13.2211H11.715C12.4669 13.2211 13.0768 12.6112 13.0768 11.8593V3.1407C13.0768 2.38878 12.4669 1.77888 11.715 1.77888H2.99643Z" fill="#121111"/>
<path fill-rule="evenodd" clip-rule="evenodd" d="M19.6154 3.61669C19.6154 3.42667 19.4264 3.29589 19.2486 3.36128L14.1782 5.23904C13.7553 5.39637 13.2843 5.17978 13.128 4.75682C12.9707 4.33386 13.1872 3.86288 13.6102 3.70659L18.6806 1.82883C19.926 1.36706 21.25 2.28856 21.25 3.61667V11.383C21.25 12.7111 19.926 13.6326 18.6806 13.1708L13.6102 11.2931C13.1873 11.1368 12.9707 10.6658 13.128 10.2429C13.2843 9.81991 13.7553 9.60333 14.1782 9.76064L19.2486 11.6384C19.4264 11.7038 19.6154 11.572 19.6154 11.383V3.61669Z" fill="#121111"/>
</svg>
