<svg width="22" height="22" viewBox="0 0 22 22" fill="none" xmlns="http://www.w3.org/2000/svg">
<g id="vuesax/linear/trade">
<g id="trade">
<path id="Vector" d="M20.1667 7.79168C20.1667 11.0825 17.4992 13.75 14.2083 13.75C14.0525 13.75 13.8875 13.7409 13.7317 13.7317C13.5025 10.8259 11.1742 8.4975 8.26832 8.26833C8.25916 8.1125 8.25 7.94751 8.25 7.79168C8.25 4.50084 10.9175 1.83334 14.2083 1.83334C17.4992 1.83334 20.1667 4.50084 20.1667 7.79168Z" stroke="#121212" stroke-width="1.5" stroke-linecap="round" stroke-linejoin="round"/>
<path id="Vector_2" d="M13.7502 14.2083C13.7502 17.4992 11.0827 20.1667 7.79183 20.1667C4.501 20.1667 1.8335 17.4992 1.8335 14.2083C1.8335 10.9175 4.501 8.25 7.79183 8.25C7.94766 8.25 8.11265 8.25916 8.26849 8.26832C11.1743 8.49749 13.5027 10.8258 13.7318 13.7317C13.741 13.8875 13.7502 14.0525 13.7502 14.2083Z" stroke="#121212" stroke-width="1.5" stroke-linecap="round" stroke-linejoin="round"/>
<path id="Vector_3" d="M5.12433 1.83334H2.75016C2.246 1.83334 1.8335 2.24584 1.8335 2.75001V5.12417C1.8335 5.94001 2.82349 6.3525 3.40099 5.775L5.77515 3.40084C6.34348 2.82334 5.94016 1.83334 5.12433 1.83334Z" stroke="#121212" stroke-width="1.5" stroke-linecap="round" stroke-linejoin="round"/>
<path id="Vector_4" d="M16.8757 20.1667H19.2499C19.7541 20.1667 20.1666 19.7542 20.1666 19.25V16.8758C20.1666 16.06 19.1766 15.6475 18.5991 16.225L16.2249 18.5992C15.6566 19.1767 16.0599 20.1667 16.8757 20.1667Z" stroke="#121212" stroke-width="1.5" stroke-linecap="round" stroke-linejoin="round"/>
</g>
</g>
</svg>
